<?xml version="1.0" encoding="UTF-8"?>
<svg id="Layer_1" xmlns="http://www.w3.org/2000/svg" xmlns:xlink="http://www.w3.org/1999/xlink" version="1.1" viewBox="0 0 160 200">
  <!-- Generator: Adobe Illustrator 29.2.0, SVG Export Plug-In . SVG Version: 2.1.0 Build 108)  -->
  <defs>
    <style>
      .st0 {
        fill: #fff0e6;
      }

      .st1 {
        fill: #2049bc;
      }
    </style>
  </defs>
  <rect class="st1" width="160" height="200"/>
  <path class="st0" d="M64.2,24.6c.2,0,.2,0,.4,0,.9-.4,2-1.4,2.9-1.9,6.7-4.1,13.3-7.4,21-9.3,6.5-1.6,18.7-2.9,24.4,1.3,6.2,4.6,5.9,14.8,3.7,21.4-.6,1.7-2.4,6-3.5,7.2-1,1.1-3.3,2.6-4.6,3.7-1.3,1.1-2.6,2.2-3.9,3.4-1.3,1.6-3.4,3.2-4.6,4.8-.8,1-.2,2,1.1,1.7.5-.1,2.8-1.7,3.3-2.1,4.2-3,7.8-7.1,11.8-10.4,3.7-1.6,8.9-2.6,11.5,1.3,3.1,4.8,1.1,10.9-1,15.7-2.7,2.9-6,5.4-8.6,8.3-.3.3-.8.9-.9,1.3-.2.9.7,1.4,1.5,1,1-.6,3.3-2.7,4.2-3.6,1.6-1.5,3-3.1,4.5-4.6,4.2-2.1,9.9-3.4,14-.5,7,5,4.1,17.6.9,24.1-2.8,2.5-5.8,4.8-8.4,7.5-.7.7-2.3,2.1-1.3,3.2.6.7,1.3.3,2-.1,2.5-1.4,5.8-4.4,7.8-6.5.3-.3,1.1-1.5,1.4-1.5,1.2-.2,3.3.6,4.3,1.3,3,2,3.9,5.8,4.2,9.2.5,6.2-.4,13-2.6,18.9-1.1,2.8-3.6,7.4-7.3,5.9-2.9-1.2-2.3-5.2-1.9-7.6.3-1.7.8-3.3,1-5-2.7,1-5.5,4.8-8.6,4.3-.6,0-1.4-.6-1.7-1.1-2-2.8,1.5-8,2.8-10.6.1-.2.7-1.2.6-1.3-4.6,1.6-7.8,5.6-12,7.8-2.4,1.3-5.8,2.1-7.5-.7-1.8-2.9.7-6.8,2.3-9.2,2.8-4,6.6-7.3,9.6-11.1.2-.2,1.6-2.1,1.5-2.2-2,.6-4,1.5-5.9,2.5-5.1,2.7-13.7,9.8-19.5,8.6-4.8-1-3.5-6.2-1.8-9.3,2.5-4.6,6.8-8.3,9.5-12.8-.2-.1-3.2,1.6-3.6,1.8-5.2,3.1-9.7,7.2-14.5,10.9-2.7,2-7.9,6-11.2,3.3-2.8-2.3-1.4-7.5-.2-10.4,2.9-6.8,9.2-12.2,13.9-17.8.2-.2,1.5-1.8,1.4-2-2.4,1-4.5,2.5-6.6,4-7.1,5.1-13.4,11.2-20.5,16.2-3.4,2.3-10.5,7.2-13.9,2.6-2.9-4,1.3-11.3,3.9-14.7,7.2-9.5,17.3-17.3,25.8-25.6,1-1,2.1-2,3-3.1.2-.2,1.4-1.6,1.2-1.8-10.7,2.6-20.5,8.2-29.7,14.1-8.2,5.3-15.7,11.6-23.1,18-5.3,4.6-14.3,14.1-20.9,15.6-7.2,1.6-7.8-5.9-6.6-11,2.3-10.2,9-20.7,16.2-28.1,1.2-1.2,3.1-3.2,4.4-4.2.6-.5,2.3-1,3.1-1.4,6.9-3.3,13-6,16.5-13.3.7-1.4,2.1-4.6,2.3-6,0-.8-.5-1.1-1.1-.6-2.4,5-5.5,9.3-10.1,12.6-2.9,2.1-8.9,5.2-12.3,6.4-.5.2-2.1.7-2.5.7-.6,0-2.6-1.3-3.1-1.6-7.1-5.2-4.5-14.8,0-20.8,6.2-8.2,19.2-16.2,29.8-14.9,6.8.8,15,6.6,13.4,14.2-.3,1.5-1,2.8-1.6,4.2h0Z"/>
  <path class="st0" d="M81.8,169.6c.4.4,2.1-.2,2.6-.4,7-2.4,14.7-8.7,20.9-12.9,8.2-5.5,18.8-12.3,28.4-15.1,3-.9,11.9-2.9,10.9,2.8-.4,2.4-4.9,5.8-6.8,7.3-5.2,4.1-10.7,7.6-15.6,12-1.9,1.7-8.5,7.6-9.1,9.8,0,.1,0,.3,0,.4,5.6-1.1,10.5-4.4,15.6-7,4.3-2.2,12.4-5.9,17.1-4.9,4.6,1,4,5.3,2.3,8.6-7.5,14.4-27.4,21-42.7,21.7-4.8.2-12.2.7-14.2-5-.3-1-.8-3.3-.5-4.4.2-.6,1.5-2.6,1.9-3.2,2.1-3.4,5-7.3,7.9-10,.6-.5,1.8-1.2,2-2,.2-1.3-.9-1.6-1.9-1.2-3.9,1.6-9.5,8.8-11.7,12.5-.4.7-.8,1.8-1.3,2.4-.5.6-4,2.8-4.9,3.4-6.5,3.8-19.6,9.2-25.6,2.4-2.4-2.7-2.4-5-.7-8.2.1-.2.9-1.2.7-1.4-3,1.1-6.1,2-9.4,2.5-3.6.5-11.7.8-14.7-1.3-2.3-1.6-2.9-5.1-2.3-7.7.1-.6.5-1.2.5-1.9-.5,0-1,.3-1.5.3-2.5,0-4.4-.3-6.5-1.6-8.6-5.4-14-18.9-15.2-28.7-1.7-13.8,1.7-25.6,9.6-36.8,2-2.8,4-5,6.4-7.4,4.3-4.3,10.9-9.1,17-9.8,3.2-.4,9.8.6,12.5,2.4,5.2,3.6,4.4,12.8,2.5,18-.8,2.2-4.2,5.9-5.8,7.8-3.8,4.6-8.3,9.4-12.6,13.5-.5.5-1.3,1.2-1.8,1.6-.5.3-2.1.7-.8,1.2,1.6.6,4.3-1.7,5.5-2.7,3.9-3.1,7.9-7,11.1-10.9,1-1.2,2.2-3.1,3.3-4.2.9-.9,2.7-2,3.7-2.8,4.7-3.2,11.7-7.2,17.3-8.3,1.2-.3,2.9-.7,4,.1,2.7,1.9-2,6.2-3.4,7.6-4,3.8-8.6,7.4-12.8,11.1-4.5,3.9-9,7.8-13.3,11.9-6.1,5.6-12.9,13.1-15.4,21.2-.2.5-1,3.1-.3,3.2.9.2,5.6-3.4,6.5-4.1,8.5-6.6,16.3-14.2,24.9-20.8,8.5-6.6,19.4-14.6,29.4-18.5,2.1-.8,7.4-2.7,9.5-1.8,3,1.3.3,5.4-.9,7.1-8,11.7-21.7,19.9-32.7,28.7-4.4,3.5-10.7,8.4-13.5,13.2-1,1.7-1.8,3.4,1.2,2.9,4.7-.9,12.8-7.1,16.7-10.1,13.5-10.4,26.9-23.4,43.8-28.3,3-.9,12.7-3.2,12.5,2.3-.1,3-5,6.8-7.2,8.6-9.3,7.2-20,12.7-29.5,19.5-4.3,3.1-10.8,8.3-12.9,13.2-.2.4-.7,1.8-.4,2.1h0Z"/>
</svg>