<?xml version="1.0" encoding="UTF-8"?><svg xmlns="http://www.w3.org/2000/svg" xmlns:xlink="http://www.w3.org/1999/xlink" viewBox="0 0 2000 2000"><defs><clipPath id="uuid-fb5b6300-d179-48e5-a222-d7907cfc52e8"><path d="M0,2000h2000V.05C2000-.13,187.9.13,0-.04c6.67,0,0,1803.56,0,2000.04Z" style="fill:none;"/></clipPath></defs><g id="uuid-c88e2edb-0e8b-4c0a-9f2b-e16c004f4f59"><path d="M0,2000h2000V.05C2000-.13,187.9.13,0-.04c6.67,0,0,1803.56,0,2000.04Z" style="fill:#af93f4;"/></g><g id="uuid-491823dd-2748-491a-8b55-5387ab1ef53a"><g style="clip-path:url(#uuid-fb5b6300-d179-48e5-a222-d7907cfc52e8);"><circle cx="1638.92" cy="1588.29" r="153.17" style="fill:#ffba44;"/><path d="M-233.71-520.99c782.91-53.31,1028.48,32.91,1782.99,248.57,212.71,60.8,439.01,144.45,557.35,331.36,79.28,125.22,97.43,278.33,113.61,425.65,8.63,78.54,10.8,172.76-53.08,219.27-68.74,50.05-172.04,4.96-216.86-67.29-44.82-72.25-49.55-161.23-61.76-245.37-12.29-84.64-64.96-190.03-148.7-172.66-64.37,13.35-89.68,94.57-80.31,159.65,9.37,65.07,40.48,127.03,38.76,192.75-2.15,82.26-62,159.78-141.03,182.7-79.03,22.92-171.06-10.57-216.89-78.93-75.49-112.6-46.61-309.32-176.49-348.17-103.15-30.86-189.86,81.77-230.12,181.63-40.26,99.86-90.22,221.41-197,235.16-112.6,14.5-194.79-106.12-224.35-215.74s-41.92-235.38-128.51-308.81c-75.29-63.85-189.28-66.24-279.68-26.58C13.83,231.84-56.4,306.79-114.64,386.5c-314.32-214.42-19-540.39-119.07-907.49Z" style="fill:#2d5a49;"/><path d="M407.98,1008.43c46.24,3.21,95.02,14.51,127.06,48,66.53,69.54,21.38,190.66-54.27,250.15-75.65,59.5-173.41,84.68-250.9,141.75-77.49,57.07-130.13,172.96-70.49,248.49,40.77,51.63,118.36,60.59,180.87,40.1,62.51-20.49,114.15-64.22,166.02-104.68,180.58-140.9,398.95-256.61,627.3-238.78,26.13,2.04,53.17,6.21,74.86,20.93,69.98,47.5,34.13,162.87-32.63,214.8-66.76,51.93-155.09,75.15-211.54,138.14-15.1,16.84-27.85,37.43-28.42,60.04-1.31,52.65,60.8,83.71,113.43,85.64,1.46.05,2.93.1,4.39.13,99.97,2.16,171.42,97.7,143.42,193.69-33.55,115.06-116.76,218.63-221.4,280.35-158.62,93.57-354.81,104.04-536.07,71.48-80.32-14.43-162.47-38.51-222.51-93.77-48.81-44.92-189.53-126.91-217.08-187.25-94.34-206.57-182.19-519.19-138.96-753.29,43.16-233.75,316.78-431.88,546.94-415.92Z" style="fill:#ffba44;"/></g></g></svg>