<?xml version="1.0" encoding="UTF-8"?>
<svg id="Layer_1" data-name="Layer 1" xmlns="http://www.w3.org/2000/svg" viewBox="0 0 2000 2000">
  <defs>
    <style>
      .cls-1 {
        fill: #fff;
      }

      .cls-1, .cls-2, .cls-3 {
        stroke-width: 0px;
      }

      .cls-2 {
        fill: #ecb53f;
      }

      .cls-3 {
        fill: #006fff;
      }
    </style>
  </defs>
  <rect class="cls-3" y="1.54" width="2000" height="2000"/>
  <path class="cls-2" d="m289.78,1167.33c-34.21,162.12,29.83,335.32,143.2,456.16,113.37,120.84,270.53,193.68,431.98,230.97,137.78,31.82,285.85,38.88,417.69-12.25,163.55-63.43,281.77-207.35,375.4-355.69,44.56-70.6,86.07-145.45,100.18-227.74,14.11-82.29-3.37-174.03-63.12-232.35-62.45-60.95-157.17-74.48-244.36-71.01-53.98,2.15-108.69,9.84-157.6,32.78-98.09,45.99-167.75,150.26-274.57,168.33-86.43,14.62-169.75-32.1-248.17-71.28-60.44-30.2-122.68-56.8-186.28-79.61-29.76-10.67-60.6-20.64-92.19-19.55-102.56,3.52-185.99,104.59-202.17,181.25Z"/>
  <path class="cls-1" d="m604.18,397.39c-33.23,79.84-53.04,169.29-30.99,252.91,31.78,120.49,144.01,204.16,260.98,247.12,78.6,28.87,164.03,43.83,246.58,29.77,111.54-18.99,211.27-91.99,268.93-189.35,57.66-97.36,74.05-216.96,51.41-327.82-13.64-66.8-41.92-132.2-90.35-180.19-48.43-47.99-118.84-76.36-185.96-64.38-15.64,2.79-31.41,7.97-43.15,18.67-38.85,35.4-11.99,102.04-32.25,150.54-14.23,34.08-54.31,55.14-90.45,47.53-36.14-7.61-64.31-43.06-63.58-79.98.55-27.89,15.34-53.14,26.99-78.49s20.38-55.16,8.88-80.57c-29.49-65.15-153.78,28.61-186.58,55.36-63.46,51.76-109.24,123.88-140.45,198.87Z"/>
</svg>