<?xml version="1.0" encoding="UTF-8"?>
<svg id="Layer_1" data-name="Layer 1" xmlns="http://www.w3.org/2000/svg" viewBox="0 0 2000 3450">
  <defs>
    <style>
      .cls-1 {
        fill: #fc5359;
      }

      .cls-1, .cls-2, .cls-3 {
        stroke-width: 0px;
      }

      .cls-2 {
        fill: #cfecf9;
      }

      .cls-3 {
        fill: #006fff;
      }
    </style>
  </defs>
  <rect class="cls-2" x="0" y="0" width="2000" height="3450"/>
  <path class="cls-3" d="m479.99,2019.49c-104.31-115.04-192.17-252.8-258.32-405.03-33.56-77.24-62.18-162.25-56.96-249.69,5.22-87.44,53.65-176.22,123.76-189.52,52.9-10.03,104.77,23.16,148.28,61.67,81.08,71.75,148.31,164.91,227.47,239.87,79.15,74.96,177.06,132.67,275.81,115.61,94.97-16.41,174.4-99.42,232.08-194.12,57.68-94.7,98.9-203.11,153.34-300.7,71.76-128.64,166.51-237.56,275.5-316.7,53.33-38.72,121.87-69.97,174.61-30.04,49.4,37.4,60.73,119.49,60.32,191.09-2.46,425.82-241.95,798.36-519.59,1050.44-54.03,49.06-111.19,96.59-149.03,164.99-38.82,70.18-53.73,156.02-64.8,239.93-15.82,119.92-25.51,241.08-29,362.5-2.98,103.9-1.94,211.24-34.7,306.99-32.76,95.75-110.69,177.36-193.98,162.91-61.81-10.72-111.83-71.81-138.08-141.8-26.25-69.99-32.72-148.48-38.19-225.33-22.7-319.05-39.8-679.06-188.52-843.08Z"/>
  <path class="cls-1" d="m1215.34,859.14c34.1-173.57-7.57-366.79-132.07-492.44-122.07-123.18-313.15-167.53-481.26-124.92-168.11,42.61-310.7,165.88-391.27,319.45-40.56,77.31-66.8,166.34-49.81,251.97,16.99,85.64,86.22,164.64,173.23,171.85,67.21,5.57,131.57-30.25,198.99-31.82,78.93-1.83,156.55,48.54,187.02,121.38,21.76,52.02,20.37,110.58,33.98,165.3,13.61,54.72,51.55,111.44,107.78,115.65,190.63,14.28,319.31-322.87,353.41-496.44Z"/>
</svg>