<?xml version="1.0" encoding="UTF-8"?>
<svg id="Calque_3" xmlns="http://www.w3.org/2000/svg" version="1.1" viewBox="0 0 3000 3000">
  <!-- Generator: Adobe Illustrator 29.2.0, SVG Export Plug-In . SVG Version: 2.1.0 Build 108)  -->
  <defs>
    <style>
      .st0 {
        fill: #aa6af6;
      }

      .st1 {
        fill: #f9e9eb;
      }

      .st2 {
        fill: #e14f08;
      }
    </style>
  </defs>
  <rect class="st1" y="0" width="3000" height="3000"/>
  <path class="st0" d="M1654.3,2945.7c-4,0-7.9,0-11.9-.2l-770.5-23.5c-102.9-3.1-200.4-46.9-271.2-121.6l-298.4-314.9c-62.7-66.2-100.2-152.3-106.1-243.3l-41.4-646.4c-5-78.5,13.8-156.7,54-224.3L737.1,483.1c56.8-95.4,151.5-162.2,260.5-183.4l756.3-147.6c112.2-21.9,228.4,6.5,317.8,77.8l737.6,587.7c80.9,64.5,132.9,158.4,144.5,261.2,11.6,102.8-18.1,206-82.5,286.9s-158.4,132.9-261.2,144.5c-59.6,6.7-119.3-.4-174.7-20.1l159.7,81.9c164,84.1,246.7,271.6,198.3,449.5l-135.8,498.8c-38.1,140-150.8,247.2-292.4,278.4l-626.9,138c-27.6,6.1-55.7,9.1-83.9,9.1ZM1056.4,2147.2l561.4,17.1,296.3-65.2-491.4-252.1c-92-47.2-161.5-129.1-193.2-227.5-31.7-98.5-23-205.5,24.3-297.5,47.2-92,129.1-161.5,227.5-193.2,98.5-31.7,205.5-23,297.5,24.3l565.4,290.1c-7.1-4.9-14.1-10.1-20.9-15.6l-596.7-475.4-408.2,79.7-377.4,634.6,24.7,385.1,90.8,95.8Z"/>
  <circle class="st2" cx="664.2" cy="655.9" r="576.1"/>
</svg>