<?xml version="1.0" encoding="UTF-8"?>
<svg id="Calque_2" xmlns="http://www.w3.org/2000/svg" xmlns:xlink="http://www.w3.org/1999/xlink" version="1.1" viewBox="0 0 3000 3000">
  <!-- Generator: Adobe Illustrator 29.2.0, SVG Export Plug-In . SVG Version: 2.1.0 Build 108)  -->
  <defs>
    <clipPath id="clippath">
      <rect width="3000" height="3000" fill="none"/>
    </clipPath>
  </defs>
  <g clip-path="url(#clippath)">
    <rect width="3000" height="3000" fill="#eeeee5"/>
    <polygon points="527.41839 -70.22661 684.8858 501.62871 867.21648 783.41249 1082.69819 907.72886 1149.00026 1264.10247 1198.72681 1463.00866 1331.33094 1562.46176 1820.30868 1827.67003 1936.33729 1943.69864 2160.10676 2108.71872 2533.05588 2200.61915 2831.41518 2200.61915 3055.18465 2142.60484 3055.18465 -70.22661 527.41839 -70.22661" fill="#ba7bfd"/>
    <polygon points="-85.87572 783.41249 229.0591 725.39818 527.41839 754.40534 767.76338 1007.18196 933.51855 1206.08816 1256.74112 1272.39022 1654.55351 1500 1791.30152 1918.83537 1791.30152 2283.49673 2002.63936 2358.08655 2267.84762 2478.18856 2649.0845 2764.18671 2847.9907 3054.25824 -85.87572 3054.25824 -85.87572 783.41249" fill="#f9700b"/>
  </g>
</svg>