<?xml version="1.0" encoding="UTF-8"?>
<svg id="Calque_1" xmlns="http://www.w3.org/2000/svg" xmlns:xlink="http://www.w3.org/1999/xlink" version="1.1" viewBox="0 0 3000 3000">
  <!-- Generator: Adobe Illustrator 29.2.0, SVG Export Plug-In . SVG Version: 2.1.0 Build 108)  -->
  <defs>
    <style>
      .st0 {
        fill: #ef4f40;
      }

      .st1 {
        fill: #cda6ff;
      }

      .st2 {
        fill: #f3850a;
      }
    </style>
  </defs>
  <rect class="st1" y="0" width="3000" height="3000"/>
  <path class="st0" d="M3000,1298.5c-29.7-6.5-58.5-12.5-86.6-17.9-144.3-27.9-274.5-42.8-397.9-45.6-67.5-1.5-134,.5-200.4,6.2-17.8-46.6-37.7-92.2-59.4-136.4-57.5-117.1-128.4-225-210.7-320.5-85.1-98.9-180.2-184.9-282.7-255.9-112.7-78.1-231.7-135.7-353.5-171.5-137.8-40.4-276.9-52.1-413.4-34.7-147.5,18.8-289.4,71.1-421.8,155.6-82.1,52.4-153.2,116-211.4,189.1-53.4,67.1-96.3,142.6-127.4,224.5-49,128.9-69.1,273.5-59.7,429.8,14.4,241.2,94.9,434.6,104,455.8,31.3,72.9,90.2,130.3,163.9,159.7,73.6,29.4,156,28.3,228.8-3,72.9-31.3,130.3-90.2,159.7-163.9,29.4-73.6,28.3-156-3-228.8-.5-1.1-48.3-117.8-56.5-255.5-4.3-71.3,3.1-132.4,21.8-181.8,19.5-51.4,51.8-90.1,101.5-121.8,110.1-70.3,223-87,345.2-51.1,122,35.8,246.8,122.3,351.3,243.7,49.2,57.1,92,122.4,127.2,194,2,4.2,4.1,8.3,6.1,12.5-85.6,31.7-165.7,70.9-238,116.6-73.1,46.2-139.2,99.6-196.5,158.7-111.2,114.8-189.4,251.8-226.1,396.2-13.7,53.8-21.6,108.5-23.5,162.6-1.9,55.1,2.4,109.8,12.8,162.4,22.2,112.3,72.4,215.1,145.2,297.1,41.1,46.3,89.7,86.2,144.4,118.7,51.2,30.3,107.1,53.7,166,69.4,58,15.4,117.6,23.2,177.3,23.2,61.7,0,123.5-8.2,183.6-24.7,129.8-35.6,246.1-108.5,336.4-210.8,47.1-53.3,87.1-114.5,118.8-181.9,31.6-67.1,55.2-140.9,70.4-219.6,25.2-130.8,36.9-264,34.8-395.9-.1-6.6-.2-13.2-.4-19.8,23.9-.8,47.7-.9,71.8-.4,137,3.1,288.6,27.1,497.9,80.1v-614.5ZM1808.7,2136c-9.5,49.6-26,89.5-47.5,115.5-12.8,15.5-27.2,25.7-43.9,31.4-15.1,5.1-32,6.3-47.8,3.4-13.2-2.4-21.2-7-23.6-8.9-4.8-6.6-13.1-35.3-1.5-79.3,8-30.2,27.8-76.7,76.7-126.8,29.7-30.4,65.6-57.7,107.4-81.5-3.9,48.8-10.6,97.6-19.9,146.1Z"/>
  <circle class="st2" cx="1985.9" cy="600.7" r="438.7"/>
</svg>