<?xml version="1.0" encoding="UTF-8"?>
<svg id="Calque_4" xmlns="http://www.w3.org/2000/svg" version="1.1" viewBox="0 0 3000 3000">
  <!-- Generator: Adobe Illustrator 29.2.0, SVG Export Plug-In . SVG Version: 2.1.0 Build 108)  -->
  <rect width="3000" height="3000" fill="#a5d4f8"/>
  <path d="M2721.87256,1524.50195c-154.85254-157.71021-408.81787-95.42432-580.96826-.0625-192.90039,106.85596-352.67371,261.94824-476.86719,443.36255-172.10254,11.65405-356.17725-11.05225-491.52197-127.27051-107.78247-92.55078-158.46124-242.09387-151.20593-381.73755l-1.73151-8.11914c310.60968,49.54187,635.70648.28088,927.49799-111.21436,321.98535-123.03247,743.80371-398.57739,716.97974-790.66357-16.04736-234.56573-209.92383-385.14276-428.70654-427.69128-426.08667-82.86456-922.76709,130.65411-1236.4696,413.88519-97.11975,87.68604-178.36963,187.43335-254.01544,293.8772-254.18073-240.47021-62.64288-627.26764,148.35406-824.39777l-1.2179-4.47021H294c-2.25391,1.97412-4.44489,4.00391-6.41577,6.22876-1.96338,2.21637-3.88757,4.40186-5.20795,6.89264-119.27563,224.99799-178.07892,465.5979-124.3446,717.86621,50.02625,234.86017,193.57465,433.36469,396.32617,559.7475-34.80853,170.02734-21.87579,352.1106,34.56567,516.96509,108.95703,318.24243,363.83008,534.71704,689.31036,613.28174,47.7168,11.51807,98.25171,22.02832,147.09216,22.36304-60.55481,170.30176-100.828,350.80127-118.91248,530.90747-.42261,4.2085-.17505,8.49316.09082,12.8103.2666,4.32666.83765,8.63452,1.49561,12.93726h480c2.82214-7.11255,5.44263-14.36206,6.66089-21.94238,16.50623-102.69971,32.53809-197.39551,62.49463-297.64868,27.82886-93.13257,63.55615-183.59351,105.80408-271.08765,246.26697-66.354,497.328-164.3877,683.78503-344.08521,148.80347-143.40869,240.23633-372.57837,75.12793-540.73413ZM1732.4574,645.4574c111.95544-39.64978,241.11389-66.73016,360.52356-59.43829,10.18945.62219,84.21655,11.21997,84.79395,18.94232.4209,5.63202-34.45068,51.92615-40.74658,59.06683-93.36475,105.88965-256.44263,188.23535-387.99048,236.00952-165.54199,60.11981-344.22546,92.81543-521.03735,87.9422,135.46448-153.80292,310.70325-273.90338,504.45691-342.52258Z" fill="#aa6af6"/>
  <path d="M379.59263,2102.59263c266.64385-20.31472,486.21189,247.54721,346.74982,496.74982-107.32936,191.78515-363.93779,236.56409-533.288,96.60312-82.59187-68.25878-119.20855-163.26631-125.03381-268.96617-8.80126-159.6996,158.54229-312.72793,311.57199-324.38676Z" fill="#e14f08"/>
</svg>