<?xml version="1.0" encoding="utf-8"?>
<!-- Generator: Adobe Illustrator 27.3.0, SVG Export Plug-In . SVG Version: 6.00 Build 0)  -->
<svg version="1.1" xmlns="http://www.w3.org/2000/svg" xmlns:xlink="http://www.w3.org/1999/xlink" x="0px" y="0px"
	 viewBox="0 0 1500 2200" style="enable-background:new 0 0 1500 2200;" xml:space="preserve">
<style type="text/css">
	.st0{fill:url(#SVGID_1_);}
	.st1{fill:url(#SVGID_00000011720188672050237960000002671648497480684421_);}
	.st2{fill:url(#SVGID_00000001621898041266244030000002421996809305426622_);}
	.st3{fill:url(#SVGID_00000031921278021742710840000008827939626463774131_);}
	.st4{fill:url(#SVGID_00000109745035152531260210000011089147099733105801_);}
	.st5{fill:url(#SVGID_00000117644272087168396000000007383360217773443473_);}
	.st6{fill:url(#SVGID_00000134234893585381352980000001331234509055802303_);}
	.st7{fill:url(#SVGID_00000129913775000510611030000006415796332748482461_);}
	.st8{fill:url(#SVGID_00000028312802163266437190000004556131689667253922_);}
</style>
<g id="Layer_2">
	<linearGradient id="SVGID_1_" gradientUnits="userSpaceOnUse" x1="548.2168" y1="-1680.8245" x2="852.041" y2="2506.2524">
		<stop  offset="0" style="stop-color:#F9A8A4"/>
		<stop  offset="4.035127e-02" style="stop-color:#F7B3AF"/>
		<stop  offset="0.1436" style="stop-color:#F4C9C7"/>
		<stop  offset="0.2621" style="stop-color:#F2DAD9"/>
		<stop  offset="0.4034" style="stop-color:#F0E6E6"/>
		<stop  offset="0.59" style="stop-color:#EFEDED"/>
		<stop  offset="1" style="stop-color:#EFEFEF"/>
	</linearGradient>
	<rect class="st0" width="1500" height="2200"/>
</g>
<g id="Layer_1">
	
		<linearGradient id="SVGID_00000109741277718953383390000018057961112294814878_" gradientUnits="userSpaceOnUse" x1="211.8393" y1="787.6437" x2="1119.3605" y2="787.6437">
		<stop  offset="0" style="stop-color:#94FFE0"/>
		<stop  offset="1" style="stop-color:#11DDA2"/>
	</linearGradient>
	<path style="fill:url(#SVGID_00000109741277718953383390000018057961112294814878_);" d="M774.5,1252c-1,0-2,0-3-0.1
		c-111.8-6.5-218.9-41.2-309.8-100.3c-85.2-55.4-153.5-129.8-197.5-215.3c-34-66.1-52.1-137.3-52.4-205.8
		c-0.1-35.9,4.6-71.3,14-105.1c9.8-35.1,24.6-68.6,44.2-99.8c36.1-57.5,79.3-103.4,128.4-136.6c45-30.4,95.5-50.5,150-59.8
		c62.3-10.5,130.6-7,202.9,10.4c56.3,13.6,115.2,35.6,175.3,65.5c101.3,50.4,170.9,105.7,173.9,108c21.6,17.2,25.1,48.7,7.8,70.3
		c-17.2,21.6-48.7,25.1-70.2,7.9l0,0c-2.5-2-254.9-200.6-473.3-163.4c-86.8,14.8-155.6,64.2-210.2,151
		c-56.6,90-57.2,203.6-1.6,311.7c77.5,150.5,240.1,250.7,424.3,261.5c27.6,1.6,48.6,25.3,47,52.8
		C822.8,1231.5,800.8,1252,774.5,1252z"/>
	<g>
		
			<linearGradient id="SVGID_00000060747745465863222470000010910928861696953994_" gradientUnits="userSpaceOnUse" x1="1042.7035" y1="483.3306" x2="-135.3817" y2="3041.7983">
			<stop  offset="5.586592e-03" style="stop-color:#65A6FF"/>
			<stop  offset="0.9944" style="stop-color:#085CD6"/>
		</linearGradient>
		<path style="fill:url(#SVGID_00000060747745465863222470000010910928861696953994_);" d="M1217.7,869.1
			c-39,47.8-99.3,98.6-169.8,143c-196.4,123.6-377.2,383.8-523,752.3c-69.6,175.9-115.8,338-140.9,435.6H280.8
			c23.8-96.2,72.8-274.2,151.2-472.4c67.7-171.1,143.3-321.2,224.8-446.2c103.5-158.8,217.2-277.9,338-354
			c56.2-35.4,105.1-75.3,137.6-112.2c30-34.1,37.2-55.6,37.8-62.9c-6.5-3.8-38.6-17.7-141.8,0.8c-80.6,14.4-183.2,44.5-306.3,89.6
			c-43.3,15.9-89.2,33.7-137.5,53.3c-25.6,10.4-54.8-1.9-65.2-27.5c-10.4-25.6,1.9-54.8,27.5-65.2c71.1-28.9,137.2-53.9,198.2-75.1
			c115.2-39.9,212-65.9,289.1-77.6c56.3-8.5,101-9.4,136.6-2.6c54,10.2,78.1,37.3,88.8,58.2C1275.5,737.6,1281.2,791.1,1217.7,869.1
			z"/>
		
			<linearGradient id="SVGID_00000167383354528250261560000017366940013690596799_" gradientUnits="userSpaceOnUse" x1="690.0754" y1="827.4536" x2="268.7567" y2="682.6624">
			<stop  offset="0" style="stop-color:#025BDB;stop-opacity:0"/>
			<stop  offset="7.553828e-02" style="stop-color:#025AD9;stop-opacity:7.553828e-02"/>
			<stop  offset="1" style="stop-color:#0252C4"/>
		</linearGradient>
		<path style="fill:url(#SVGID_00000167383354528250261560000017366940013690596799_);" d="M721.9,842.7
			c-43.3,15.9-89.2,33.7-137.5,53.3c-25.6,10.4-54.8-1.9-65.2-27.5c-10.4-25.6,1.9-54.8,27.5-65.2c71.1-28.9,137.2-53.9,198.2-75.1"
			/>
	</g>
	
		<linearGradient id="SVGID_00000053541643395913488380000000861656600784018563_" gradientUnits="userSpaceOnUse" x1="-84.369" y1="1074.7887" x2="929.2764" y2="1749.1561">
		<stop  offset="5.586592e-03" style="stop-color:#DBF0FF"/>
		<stop  offset="1" style="stop-color:#7CC3F9"/>
	</linearGradient>
	<path style="fill:url(#SVGID_00000053541643395913488380000000861656600784018563_);" d="M1358.9,1729.5
		c-19.6,56.4-51.1,109-93.4,156.1c-43.5,48.5-96.9,89.3-158.8,121.5c-65.1,33.8-138.1,57.2-217,69.4c-41.3,6.4-83.2,9.6-125.8,9.6
		c-115.4,0-235.2-23.4-357.7-70c-132-50.2-267.5-127.3-402.6-229.3c-1.2-0.9-2.4-1.8-3.6-2.7v-127.2c21,17.2,42.9,34.4,65.6,51.5
		c198.3,149.3,499.6,317.2,808.8,269.4c287.4-44.4,423.4-244.1,405.4-409.4c-10-91.8-66.3-173-158.7-228.7
		c-113.6-68.5-278.4-98.1-476.5-85.5c-132.2,8.4-257.7-12.7-373-62.7c-92-39.9-177.4-98.1-253.9-172.9c-6.1-6-12-11.9-17.8-17.9
		V846.8c24.4,32.4,54.4,67.8,90.3,102.6c153.8,149.2,338.2,218.2,548.1,204.9c112.8-7.2,216.4-1.7,308.1,16.3
		c86.5,16.9,162.6,45,226.3,83.4c119.7,72.2,193,179.9,206.5,303.5C1385.5,1614.8,1378.7,1672.7,1358.9,1729.5z"/>
	
		<linearGradient id="SVGID_00000118358290548483774920000002001369669628711586_" gradientUnits="userSpaceOnUse" x1="515.5443" y1="449.9" x2="1343.1599" y2="449.9">
		<stop  offset="5.586592e-03" style="stop-color:#65A6FF"/>
		<stop  offset="0.9944" style="stop-color:#085CD6"/>
	</linearGradient>
	<path style="fill:url(#SVGID_00000118358290548483774920000002001369669628711586_);" d="M1343.2,0
		c-303.3,148.6-481.4,359.8-579.5,517.1c-60.8,97.6-98.1,185.4-118.7,241.9c-22.4,61.4-30.4,100.2-30.5,100.6
		c-4.8,23.8-25.6,40.2-48.9,40.2c-3.3,0-6.6-0.3-9.9-1c-27.1-5.4-44.6-31.8-39.2-58.9c1.4-6.8,35.1-170.1,159.8-371.7
		c73-118,162.4-225,265.7-318.1C1003,95.1,1068.8,45,1139.1,0H1343.2z"/>
	
		<linearGradient id="SVGID_00000126313704877063327120000018426371218868882846_" gradientUnits="userSpaceOnUse" x1="254.9269" y1="-123.5575" x2="1180.9169" y2="581.6666">
		<stop  offset="0" style="stop-color:#00EBA7"/>
		<stop  offset="1" style="stop-color:#11DDA2"/>
	</linearGradient>
	<path style="fill:url(#SVGID_00000126313704877063327120000018426371218868882846_);" d="M1201.9,438.1
		c-15.2,55.7-49.7,108.2-99.7,151.8c-9.5,8.3-21.2,12.3-32.8,12.3c-13.9,0-27.8-5.8-37.7-17.1c-18.1-20.8-16-52.4,4.8-70.5
		c68.3-59.6,91.9-136.8,60.2-196.8c-23.6-44.7-77-77.8-150.3-93.3c-95.3-20.1-222.6-10.6-368.2,27.4
		c-204.3,53.3-337.4-30.2-413-109.7C116.9,91.5,86,36.4,69,0h113.3c14.3,23.8,33.3,50.5,57.5,75.5c82.8,85.4,188.1,112.2,313.1,79.6
		C715.7,112.6,855,103,967,126.7c52,11,97.2,29.1,134.4,53.9c36.7,24.5,64.9,55,83.7,90.5C1212,322,1217.8,379.8,1201.9,438.1z"/>
	
		<linearGradient id="SVGID_00000059993172879008014870000004058290136960382614_" gradientUnits="userSpaceOnUse" x1="1515.032" y1="1871.415" x2="321.0406" y2="1871.415">
		<stop  offset="0" style="stop-color:#7CC3F9"/>
		<stop  offset="0.9888" style="stop-color:#42B1FF"/>
	</linearGradient>
	<path style="fill:url(#SVGID_00000059993172879008014870000004058290136960382614_);" d="M1358.9,1729.5
		c-19.6,56.4-51.1,109-93.4,156.1c-43.5,48.5-96.9,89.3-158.8,121.5c-65.1,33.8-138.1,57.2-217,69.4c-41.3,6.4-83.2,9.6-125.8,9.6
		c-115.4,0-235.2-23.4-357.7-70c-132-50.2-267.5-127.3-402.6-229.3c-1.2-0.9-2.4-1.8-3.6-2.7v-127.2c21,17.2,42.9,34.4,65.6,51.5
		c198.3,149.3,499.6,317.2,808.8,269.4c202.1-31.2,329.4-139.2,380.8-258.1L1358.9,1729.5z"/>
	
		<linearGradient id="SVGID_00000015352405537948582670000011891609352784997788_" gradientUnits="userSpaceOnUse" x1="1028.1179" y1="611.3826" x2="-73.1667" y2="3003.0613">
		<stop  offset="5.586592e-03" style="stop-color:#65A6FF"/>
		<stop  offset="0.9944" style="stop-color:#085CD6"/>
	</linearGradient>
	<path style="fill:url(#SVGID_00000015352405537948582670000011891609352784997788_);" d="M638.6,1512.3
		c-74.5,144.6-132.6,294.7-174.4,418c-11.6,34.2-21.9,66.3-31,95.7c-1.8,5.8-3.5,11.5-5.2,17.1c-18.7,61.4-33.3,115.1-44,157H280.8
		c11.3-45.4,28.2-109.1,51.1-184.8c2.6-8.5,5.3-17.3,8.1-26.4c9.2-29.7,19.7-61.9,31.3-96.1c43-126.2,102.3-278.8,178.3-426.3
		c12.7-24.5,42.8-34.2,67.4-21.5C641.6,1457.6,651.3,1487.8,638.6,1512.3z"/>
</g>
</svg>
