<svg width="172" height="77" viewBox="0 0 172 77" fill="none" xmlns="http://www.w3.org/2000/svg">
<path d="M45.7346 41.8881C46.285 41.8881 47.0936 41.9601 48.1604 42.1039C49.2252 42.2432 50.371 42.4604 51.593 42.7592C52.8196 43.0535 53.986 43.4378 55.0891 43.9095C56.1966 44.3836 57.0478 44.9569 57.6409 45.6263C58.3957 46.4531 58.6317 47.3427 58.3508 48.2953C58.2362 48.7266 58.0295 49.1308 57.7307 49.5082C57.4364 49.8856 57.1314 50.2522 56.8147 50.6049C56.617 50.8026 56.4186 50.9999 56.2209 51.1976L55.6282 51.7904C55.3092 52.1454 54.8843 52.2653 54.3518 52.1508C53.8172 52.0317 53.2846 51.8333 52.7522 51.557C52.2177 51.2763 51.7549 51.0788 51.3596 50.9642C50.4902 50.6475 49.6297 50.3707 48.7805 50.1371C47.9359 49.899 47.0575 49.7193 46.1477 49.598C45.95 49.5576 45.761 49.5355 45.5813 49.5355H45.0247C43.0837 49.5355 41.3512 50.1193 39.8303 51.2875C38.3139 52.4512 37.2781 54.0017 36.7209 55.9427C36.1279 58.0343 36.1862 60.0904 36.9006 62.1078C37.6128 64.1205 38.8377 65.7383 40.5764 66.9603C41.9176 67.8722 43.6543 68.3256 45.7883 68.3256C48.5134 68.3255 50.7063 67.6741 52.3665 66.3666C53.157 65.7378 53.8172 65.3334 54.3518 65.1537C54.8843 64.974 55.5296 65.3405 56.2844 66.2504C56.6797 66.6457 57.062 67.0721 57.4348 67.5258C57.8122 67.9818 58.1756 68.4475 58.5305 68.9193C59.0023 69.5483 59.0816 70.1592 58.7649 70.7523C58.4527 71.3453 57.9199 71.9 57.1653 72.4144C56.4149 72.9311 55.6371 73.3759 54.8284 73.7533C54.0196 74.1262 53.3951 74.4101 52.9592 74.6078C50.5509 75.7535 48.0207 76.3236 45.3743 76.3236C42.7685 76.3235 40.2797 75.7618 37.9075 74.6342C35.5351 73.5086 33.4184 71.9183 31.5627 69.8627C29.9857 68.007 28.9405 66.093 28.426 64.1205C27.9093 62.1435 27.7434 60.2087 27.9231 58.3148C28.1028 56.4165 28.4286 54.6977 28.9026 53.1566C29.927 49.9935 31.5945 47.4665 33.9084 45.5726C36.2202 43.6743 39.0959 42.5058 42.5354 42.0677C43.6788 41.9487 44.7462 41.8881 45.7346 41.8881ZM81.6223 0.536499C82.431 0.55447 83.114 0.56384 83.6711 0.563843C84.1789 0.563843 84.6915 0.595274 85.2083 0.653687C85.7226 0.714355 86.2167 0.864838 86.6907 1.10291C87.5173 1.49827 88.196 2.25977 88.7307 3.38513C89.2699 4.51293 89.724 5.70847 90.0969 6.97107C90.4744 8.23591 90.8001 9.28104 91.0764 10.1078C91.6268 11.4556 92.1771 12.8123 92.7297 14.1781C93.2869 15.5395 93.9604 16.852 94.7512 18.1146C95.4207 19.1818 96.0932 19.5859 96.7649 19.3275C97.4343 19.0713 97.9691 18.4468 98.3645 17.4584C99.353 15.0097 100.328 12.5588 101.294 10.1078C102.265 7.65903 103.244 5.22802 104.233 2.8197C104.309 2.50293 104.417 2.21683 104.556 1.96521C104.693 1.70925 104.882 1.48019 105.122 1.28259C105.439 1.08499 105.765 0.956515 106.102 0.895874C106.436 0.8375 106.78 0.80603 107.135 0.80603C107.966 0.765598 108.788 0.73416 109.597 0.716187C110.406 0.698216 111.206 0.707596 111.996 0.74353C112.234 0.74353 112.464 0.757197 112.68 0.779663C112.895 0.797696 113.084 0.885498 113.245 1.04041C113.555 1.28079 113.682 1.62019 113.623 2.05603C113.563 2.48715 113.455 2.88023 113.3 3.23279C111.125 8.68521 108.933 14.1287 106.722 19.5609C104.511 24.9954 102.356 30.4389 100.26 35.889C99.786 37.1516 99.3119 38.4463 98.8401 39.7719C98.3661 41.0949 97.7122 42.2898 96.8811 43.3568C95.814 44.698 94.491 45.714 92.9094 46.4037C91.4378 47.0515 89.8957 47.415 88.2795 47.4955C88.4877 47.8733 88.678 48.2685 88.8479 48.682C89.6207 50.5578 90.1448 52.5817 90.4211 54.7562C90.6548 56.7288 90.7624 58.7241 90.7444 60.7416C90.7264 62.7544 90.717 64.6123 90.717 66.3129C90.717 66.7082 90.7556 67.4091 90.8342 68.4154C90.9106 69.4219 90.9514 70.4807 90.9514 71.5883C90.9514 72.691 90.8615 73.6501 90.6819 74.4633C90.5067 75.2719 90.1829 75.7169 89.7112 75.7933C89.0754 75.872 88.2548 75.991 87.2483 76.1527C86.2419 76.3077 85.2737 76.3442 84.3459 76.2611C83.4159 76.1847 82.7152 75.8473 82.2434 75.2543C81.6863 74.5489 81.4659 73.6527 81.5872 72.5677C81.7062 71.4781 81.7448 70.5363 81.7043 69.7455C81.7043 67.5349 81.695 65.342 81.677 63.1674C81.659 60.9928 81.6684 58.8228 81.7043 56.6527C81.7043 54.5993 81.2095 52.9589 80.2209 51.7367C79.237 50.5103 77.8175 49.7759 75.9622 49.5355C75.8408 49.4996 75.7209 49.4818 75.6018 49.4818H75.2424C74.0969 49.4819 73.0232 49.7869 72.0168 50.3978C71.0104 51.0089 70.1791 51.8181 69.5276 52.8246C68.8739 53.831 68.4875 54.9496 68.3684 56.1761C68.2538 57.6387 68.1838 59.0923 68.1614 60.5345C68.1434 61.9724 68.1548 63.4061 68.1975 64.8304C68.1975 66.412 68.1838 68.0118 68.1614 69.6293C68.1434 71.2467 68.135 72.8687 68.135 74.4906C68.135 75.0837 67.829 75.5015 67.218 75.7396C66.6069 75.9733 65.8541 76.0902 64.9622 76.0902C64.0749 76.0902 63.2236 76.0516 62.4104 75.973C61.6017 75.8899 60.9814 75.848 60.55 75.848C59.9569 75.848 59.5476 75.5642 59.3274 74.9935C59.1118 74.4185 59.0272 73.7353 59.0676 72.9447C59.1081 72.154 59.1771 71.3948 59.2737 70.6625C59.3748 69.9324 59.427 69.3684 59.427 68.973C59.4629 67.8296 59.4901 66.6861 59.5081 65.5404C59.5305 64.3969 59.5432 63.2483 59.5432 62.098C59.5432 57.1623 59.492 52.2264 59.3909 47.2885C59.2943 42.346 59.2473 37.4258 59.2473 32.5238C59.2473 31.8948 59.3235 31.3153 59.4807 30.7806C59.6424 30.2483 60.0759 29.9047 60.7834 29.7474C61.6505 29.5498 62.5582 29.5019 63.5061 29.6029C64.4587 29.6995 65.3691 29.7652 66.2385 29.8011C67.3033 29.8439 68.0134 30.2209 68.3684 30.933C68.7279 31.6407 68.876 32.5199 68.8176 33.5668C68.757 34.6158 68.6286 35.6425 68.4309 36.6488C68.2333 37.6551 68.135 38.4772 68.135 39.1107V42.1302C68.135 42.5614 68.3097 42.9366 68.6643 43.2533C68.9024 43.4936 69.242 43.6136 69.6799 43.6136H69.8508C70.4844 43.5373 71.0868 43.4495 71.6575 43.3529C72.2325 43.2518 72.7765 43.159 73.2932 43.0736C74.3175 42.876 75.3014 42.7214 76.2493 42.6068C77.2017 42.4878 78.1114 42.4271 78.9807 42.4271C79.3309 42.4271 79.6721 42.4369 80.0032 42.4564C80.066 42.3054 80.141 42.1503 80.2297 41.9916C80.7442 41.0863 81.209 40.347 81.6223 39.7719C82.0356 39.1969 82.5298 38.8303 83.1047 38.6752C83.6798 38.5179 84.4577 38.657 85.4417 39.0883C86.2325 39.405 87.0417 39.453 87.8684 39.2328C88.6995 39.0171 89.3732 38.5942 89.8899 37.9652C90.5234 37.2508 90.8116 36.5585 90.7532 35.889C90.6925 35.2174 90.6624 34.4695 90.6624 33.6429C90.6624 32.6905 90.4136 31.693 89.9172 30.6508C89.4252 29.6038 89.0201 28.6442 88.7034 27.7748C88.308 26.6672 87.8902 25.5614 87.4543 24.4584C87.0231 23.351 86.5917 22.2437 86.1604 21.1342C85.291 18.8405 84.4305 16.5577 83.5813 14.2865C82.7298 12.0175 81.8694 9.73689 81.0022 7.44763C80.7259 6.61645 80.3603 5.80283 79.9065 5.01208C79.4504 4.22128 79.1445 3.39227 78.9895 2.52283C78.8277 1.69608 79.0208 1.15423 79.5735 0.895874C80.1306 0.639812 80.8137 0.518546 81.6223 0.536499ZM164.798 29.6302C165.51 29.5471 166.281 29.5649 167.108 29.684C167.939 29.8053 168.729 29.9045 169.48 29.9808C170.311 30.0595 170.857 30.5021 171.115 31.3109C171.372 32.1195 171.488 32.9888 171.466 33.9164C171.448 34.8465 171.417 35.5887 171.376 36.1459C171.298 37.9609 171.251 39.7983 171.233 41.6537C171.215 43.5116 171.205 45.3703 171.205 47.226V74.2484C171.205 74.729 171.106 75.1062 170.908 75.3802C170.625 75.7351 170.228 75.9326 169.713 75.973C169.203 76.009 168.673 76.0676 168.123 76.1439C167.607 76.1866 167.002 76.2252 166.308 76.2611C165.618 76.3015 164.969 76.2359 164.358 76.0629C163.747 75.8832 163.282 75.5196 162.965 74.9672C162.491 74.0932 162.212 73.1336 162.129 72.0912C162.053 71.0443 162.073 69.9771 162.192 68.892C162.311 67.8024 162.371 66.7844 162.371 65.8363C162.412 63.9808 162.443 62.1342 162.461 60.3011C162.479 58.4634 162.508 56.6142 162.551 54.7562C162.587 51.0787 162.596 47.3945 162.578 43.7035C162.56 40.0078 162.511 36.323 162.435 32.6498C162.435 31.6209 162.65 30.8794 163.081 30.4301C163.517 29.9762 164.09 29.7089 164.798 29.6302ZM14.8547 41.7709C16.2746 41.7709 17.6769 41.9391 19.0608 42.2738C20.4447 42.6108 21.7677 43.0743 23.0325 43.6674C24.1757 44.1839 24.9935 44.6687 25.4856 45.1224C25.9821 45.5785 26.1616 46.1247 26.0247 46.7582C25.8854 47.3872 25.4229 48.2748 24.6321 49.4183C24.0391 50.2876 23.3653 50.7732 22.6106 50.8744C21.8603 50.971 21.051 50.8634 20.1838 50.5511C19.3144 50.2344 18.4341 49.847 17.5422 49.391C16.6548 48.9372 15.785 48.5508 14.9358 48.2318C14.0911 47.9151 13.311 47.8168 12.5989 47.9359C11.8847 48.0574 11.2536 48.5514 10.7034 49.4183C10.1867 50.2876 10.0386 51.0491 10.2542 51.7006C10.4743 52.3543 10.9213 52.9182 11.593 53.39C12.2624 53.864 13.0417 54.2598 13.929 54.5765C14.8207 54.8955 15.6814 55.1744 16.5081 55.4125C17.3393 55.6461 18.0138 55.8613 18.5305 56.059C20.0267 56.6116 21.4867 57.2819 22.9065 58.0726C24.3308 58.8634 25.4794 59.9683 26.3489 61.3881C27.5351 63.3651 27.959 65.2143 27.6243 66.933C27.2873 68.6539 26.4874 70.1752 25.2249 71.4984C23.9601 72.8237 22.4594 73.8796 20.7229 74.6703C18.5482 75.6947 16.3554 76.2074 14.1448 76.2074C12.88 76.2074 11.4869 76.0321 9.96606 75.6771C8.44292 75.3177 6.9601 74.8636 5.51782 74.3109C4.07331 73.7605 2.79929 73.1674 1.69849 72.5316C0.865118 72.0599 0.427399 71.5763 0.386963 71.0844C0.351142 70.588 0.530815 70.0739 0.926025 69.5394C1.32143 69.007 1.69411 68.4243 2.04907 67.7953C2.16808 67.5977 2.29659 67.4095 2.43579 67.2299C2.57279 67.0502 2.72332 66.9019 2.88501 66.7806C3.31621 66.4707 3.76759 66.3737 4.24146 66.4926C4.71322 66.6071 5.17897 66.8045 5.63501 67.0853C6.08872 67.3616 6.493 67.5976 6.8479 67.7953C8.07455 68.467 9.42051 68.9619 10.8831 69.2787C12.3433 69.5909 13.7678 69.7079 15.1516 69.6293C16.176 69.5529 17.122 69.3231 17.9915 68.9457C18.8584 68.5683 19.3703 68.045 19.5276 67.3734C19.6893 66.704 19.218 65.9154 18.1174 65.0101C16.6483 63.86 15.0933 62.9118 13.4534 62.1615C11.8179 61.4134 10.1304 60.7597 8.3938 60.2025C6.77628 59.6948 5.47312 58.9261 4.48462 57.9017C3.49611 56.8728 2.79018 55.7242 2.37231 54.4594C1.9591 53.197 1.83366 51.9705 1.99536 50.7845C2.19304 49.5221 2.68281 48.3179 3.46899 47.1722C4.2598 46.022 5.2486 45.0124 6.43481 44.1429C7.62093 43.2759 8.9065 42.6826 10.2903 42.3636C11.0807 42.1661 11.8488 42.0208 12.5989 41.9242C13.3469 41.8231 14.0999 41.7709 14.8547 41.7709ZM108.91 41.7709C112.347 41.7709 115.38 42.4853 118.004 43.9095C120.633 45.3294 122.698 47.304 124.197 49.8314C125.7 52.3611 126.451 55.2847 126.451 58.6029C126.451 63.7789 124.83 67.9893 121.59 71.2289C120.013 72.8104 118.13 74.0281 115.938 74.8773C113.745 75.722 111.363 76.1439 108.793 76.1439C106.342 76.1439 104.06 75.7012 101.946 74.8138C99.8294 73.9287 97.9738 72.7068 96.3743 71.1478C94.7747 69.5842 93.5091 67.7664 92.5813 65.6927C91.6513 63.6147 91.171 61.3883 91.135 59.016C91.0923 56.8053 91.5236 54.6032 92.429 52.4105C93.3388 50.218 94.6065 48.2924 96.2307 46.6322C97.7695 45.0508 99.524 43.8466 101.496 43.0199C103.473 42.1887 105.509 41.7709 107.607 41.7709H108.91ZM144.411 41.7709C147.849 41.7709 150.882 42.4852 153.506 43.9095C156.134 45.3293 158.199 47.3042 159.698 49.8314C161.2 52.3611 161.953 55.2847 161.953 58.6029C161.953 63.7789 160.331 67.9893 157.091 71.2289C155.514 72.8103 153.631 74.0282 151.439 74.8773C149.246 75.7219 146.865 76.1439 144.295 76.1439C141.844 76.1439 139.562 75.7012 137.448 74.8138C135.331 73.9287 133.475 72.707 131.875 71.1478C130.276 69.5842 129.011 67.7663 128.083 65.6927C127.153 63.6147 126.672 61.3884 126.636 59.016C126.593 56.8053 127.026 54.6032 127.931 52.4105C128.841 50.218 130.108 48.2923 131.732 46.6322C133.27 45.0508 135.025 43.8466 136.997 43.0199C138.974 42.1887 141.01 41.7709 143.109 41.7709H144.411ZM108.614 48.8256C107.23 48.8256 105.884 49.2725 104.578 50.1644C103.278 51.0518 102.202 52.1953 101.353 53.597C100.501 54.9988 100.059 56.4703 100.023 58.0092C99.98 59.712 100.256 61.3524 100.849 62.934C101.442 64.5156 102.35 65.8407 103.573 66.9056C104.799 67.9727 106.322 68.6044 108.137 68.8021C110.154 68.9998 111.853 68.6855 113.233 67.8588C114.617 67.0275 115.682 65.8883 116.432 64.4437C117.187 63.0014 117.602 61.4195 117.681 59.6986C117.757 57.9801 117.502 56.3332 116.908 54.7562C116.315 53.1747 115.365 51.8423 114.06 50.7572C112.759 49.6676 111.103 49.0233 109.09 48.8256H108.614ZM144.115 48.8256C142.732 48.8256 141.386 49.2726 140.08 50.1644C138.78 51.0518 137.703 52.1952 136.854 53.597C136.002 54.9988 135.56 56.4704 135.524 58.0092C135.481 59.7121 135.758 61.3524 136.351 62.934C136.944 64.5154 137.851 65.8408 139.073 66.9056C140.3 67.9728 141.824 68.6044 143.639 68.8021C145.656 68.9998 147.354 68.6853 148.734 67.8588C150.118 67.0275 151.182 65.8882 151.933 64.4437C152.688 63.0014 153.104 61.4195 153.183 59.6986C153.259 57.9801 153.002 56.3332 152.409 54.7562C151.816 53.1747 150.866 51.8423 149.561 50.7572C148.26 49.6677 146.604 49.0233 144.591 48.8256H144.115ZM65.177 0.510132C67.1471 0.510175 69.0228 0.927984 70.802 1.75916C72.5812 2.58586 74.1225 3.80777 75.4299 5.42517C76.2971 6.49222 76.9173 7.70781 77.2903 9.07361C77.6677 10.4351 77.9036 11.8759 78.0002 13.3969C78.1013 14.9199 78.1399 16.4321 78.1174 17.9349C78.0995 19.4332 78.1485 20.8349 78.2698 22.14C78.4315 23.8787 78.5891 25.6761 78.7463 27.5316C78.9014 29.3896 78.6434 31.1698 77.9739 32.8705C77.6975 33.5421 77.281 33.9755 76.7239 34.1732C76.1713 34.3708 75.5602 34.4409 74.8909 34.3802C74.2192 34.3218 73.5268 34.3125 72.8147 34.3529C71.831 34.3529 71.1122 34.3059 70.6584 34.2094C70.2024 34.1083 69.9059 33.8294 69.7688 33.3734C69.6295 32.9196 69.5219 32.1781 69.4456 31.1537C69.2838 28.2241 69.2202 25.2807 69.2561 22.3197C69.2965 19.3543 69.1618 16.4493 68.8518 13.6029C68.6541 11.8305 68.0483 10.4394 67.0374 9.43298C66.0309 8.42201 64.7382 7.91443 63.1633 7.91443C63.0017 7.91445 62.8218 7.92811 62.6243 7.95056C62.4267 7.96853 62.2291 7.99569 62.0315 8.03162C60.2522 8.272 58.9062 8.82656 57.9963 9.69373C57.091 10.5632 56.4707 11.6418 56.136 12.9291C55.799 14.2118 55.6331 15.5664 55.6331 16.9906C55.6331 18.4105 55.6529 19.8127 55.6956 21.1967C55.6956 21.473 55.7227 22.0953 55.7766 23.0658C55.835 24.0318 55.8872 25.1376 55.9299 26.3822C55.9704 27.6221 55.961 28.8485 55.9026 30.057C55.8419 31.261 55.7008 32.2678 55.4807 33.0765C55.2651 33.8852 54.9412 34.3301 54.51 34.4066C53.7957 34.4852 52.9936 34.5959 52.1018 34.7396C51.2145 34.8789 50.3538 34.9142 49.5227 34.8558C48.696 34.7974 48.0057 34.5508 47.4553 34.1195C46.9027 33.6837 46.6292 32.9486 46.6292 31.9174C46.5865 28.9946 46.5657 26.0625 46.5657 23.1195C46.5657 20.1789 46.4444 17.2653 46.2063 14.3763C46.0917 12.7588 45.6491 11.3273 44.8762 10.0804C44.1034 8.83584 42.7866 8.13517 40.9309 7.97791C40.8164 7.93752 40.6616 7.91444 40.4641 7.91443C38.8039 7.91443 37.4673 8.31022 36.4563 9.10095C35.4499 9.89171 34.6969 10.9205 34.2004 12.183C33.7085 13.4478 33.3848 14.7802 33.2297 16.182C33.0725 17.5838 33.0141 18.9185 33.05 20.181C33.0905 21.9243 33.1219 23.6767 33.1399 25.4379C33.1579 27.1946 33.1672 28.9406 33.1672 30.6771C33.2077 32.061 33.0699 33.0207 32.7532 33.5531C32.4409 34.0876 31.9083 34.4042 31.1536 34.5052C30.4032 34.6018 29.3766 34.7074 28.0715 34.8197C26.5731 34.9387 25.5665 34.6046 25.052 33.8138C24.5353 33.0231 24.2796 31.9402 24.2795 30.5609V5.07458C24.2795 4.5175 24.2481 3.84802 24.1897 3.06189C24.1313 2.27114 24.2973 1.67798 24.6926 1.28259C24.8544 1.08489 25.2323 0.985718 25.8254 0.985718H26.2297C26.3914 0.98574 26.5534 1.00448 26.7151 1.04041C27.2652 1.11901 27.7952 1.20889 28.3049 1.30994C28.8194 1.40653 29.3341 1.49635 29.8508 1.57947C30.6821 1.73673 31.5227 1.88285 32.3674 2.0199C33.2166 2.15917 34.0772 2.28658 34.9465 2.40564H35.3059C35.7012 2.40562 36.0542 2.34725 36.3665 2.22595C36.6831 2.10694 36.9799 2.00865 37.2561 1.93005C37.3392 1.85367 37.429 1.8035 37.5256 1.78552C37.6266 1.76306 37.6958 1.73159 37.7317 1.69568C38.8391 1.33627 39.8459 1.05841 40.7512 0.860718C41.6611 0.663016 42.5131 0.563843 43.304 0.563843C45.7122 0.563912 47.7651 1.49434 49.468 3.34998C50.5756 4.45979 51.7242 5.01208 52.9104 5.01208C53.6158 5.01206 54.2582 4.85656 54.8333 4.54431C55.4081 4.22766 55.9316 3.88897 56.4055 3.52966C56.5178 3.45331 56.6234 3.37389 56.72 3.29529C56.8211 3.2189 56.9139 3.15829 56.9993 3.1156C59.5626 1.37911 62.288 0.510132 65.177 0.510132Z" fill="#1B1B1B"/>
</svg>
