<svg width="148" height="16" viewBox="0 0 148 16" fill="none" xmlns="http://www.w3.org/2000/svg">
<path d="M31.7464 0.783191C33.5315 0.644176 35.1587 0.687338 36.4955 0.712824C36.6797 0.71644 36.8606 0.7195 37.0387 0.721788C39.7337 0.708123 42.2061 0.919141 44.4671 1.03911C44.5306 1.03396 44.5949 1.02842 44.6596 1.02298C44.6807 1.02131 44.7019 1.0197 44.723 1.01805C46.4057 0.874507 48.748 0.823828 49.4846 0.94992C49.6203 0.95418 49.7495 0.961431 49.8729 0.971434C51.8015 1.137 52.9081 1.43316 53.5489 1.60608C53.6264 1.6177 53.7021 1.62918 53.776 1.64104C55.6108 1.68583 57.6607 1.89306 58.8453 1.98794C60.5278 2.00405 62.1777 2.16487 63.3936 2.21249C65.8921 2.24345 68.2121 2.44174 70.4253 2.48365C70.651 2.48852 70.8733 2.49232 71.0996 2.49485C72.6492 2.51036 74.1407 2.53876 75.6399 2.54595C77.2314 2.55467 78.8188 2.55249 80.3944 2.53205C81.0637 2.44827 81.709 2.35235 82.3092 2.25552C82.5395 2.21949 82.7544 2.18375 82.9739 2.1484C84.1033 1.96554 85.0599 1.79659 85.9154 1.73561C86.3311 1.70656 86.7787 1.6932 87.2219 1.69482C88.9622 1.70468 90.6862 1.90363 92.034 2.04173C92.3081 2.07027 92.5669 2.09656 92.801 2.11882C92.8101 2.11843 92.8192 2.11831 92.8282 2.11792C94.0799 2.06303 95.5058 1.96807 96.8716 1.92206C96.9677 1.96581 97.0549 2.01164 97.1526 2.05831C97.3198 2.14173 97.4929 2.21332 97.6766 2.27524C98.7577 2.64645 100.077 2.66579 101.998 2.70461C102.973 2.72396 104.103 2.74874 105.43 2.82024C106.287 2.86649 106.724 3.08285 107.083 3.25724C107.19 3.30854 107.289 3.35637 107.388 3.39528C107.647 3.49512 107.913 3.44638 108.207 3.35136C108.309 3.31953 108.406 3.28266 108.515 3.24424C109.063 3.04443 109.711 2.81236 110.577 3.03852C111.637 3.31044 112.531 3.40213 113.224 3.40962C114.34 3.41918 115.03 3.18106 115.609 2.98653C115.885 2.89394 116.133 2.8113 116.388 2.7696C117.215 2.63479 118.392 2.83715 119.279 3.07527C119.713 3.19183 120.414 3.18775 121.126 3.12502C121.573 3.08575 122.023 3.02261 122.427 2.95201C122.824 2.88288 123.371 2.89016 124.027 2.90226C124.701 2.91505 125.482 2.93393 126.313 2.8803C126.89 2.84343 127.384 2.81501 127.828 2.79156C129.003 2.72962 129.766 2.70176 130.417 2.67906C130.675 2.6703 130.909 2.66308 131.148 2.65531C131.897 2.63074 132.826 2.63093 133.768 2.63648C134.898 2.64299 136.037 2.65672 136.909 2.63962C139.164 2.87507 141.417 3.13069 143.669 3.38363C144.825 3.51487 145.932 3.84412 146.745 4.27419C147.557 4.70662 148.007 5.2009 148 5.69587C147.991 6.19093 147.525 6.66234 146.704 7.05884C145.883 7.45298 144.773 7.73773 143.62 7.82839C141.296 8.00815 138.973 8.21144 136.65 8.41015C133.825 8.65195 130.991 8.88676 128.173 9.05197C128.067 9.05812 127.962 9.06429 127.861 9.07035C125.98 9.17717 124.177 9.28168 122.271 9.38498C122.063 9.39527 121.854 9.40481 121.646 9.41366C121.493 9.44156 121.344 9.46891 121.19 9.49613C119.654 9.77217 118.182 10.0209 117.115 10.146C116.148 10.2591 115.447 10.1801 114.846 10.1097C114.434 10.0616 114.067 10.0179 113.704 10.0488C113.589 10.0584 113.451 10.0728 113.296 10.09C113.18 10.1026 113.056 10.1165 112.923 10.1321C111.89 10.2527 110.055 10.5041 108.263 10.4858C107.899 10.4834 107.537 10.4719 107.183 10.4486C106.251 10.3877 105.175 10.2234 104.148 10.0586C102.681 9.82389 101.316 9.5879 100.627 9.69737C99.7138 9.84337 98.6951 9.83364 97.7363 9.7897C97.4267 9.77571 97.1232 9.75854 96.8302 9.74219C95.6762 9.67705 94.6987 9.63359 94.1025 9.84976C93.713 9.99248 93.3405 10.0377 92.9371 10.0313C92.6134 10.0261 92.2682 9.98793 91.8695 9.94119C91.2492 9.86874 90.4943 9.7759 89.4766 9.75833C88.5932 9.74337 87.908 9.66317 87.3384 9.5786C87.1508 9.55082 86.9745 9.5226 86.8056 9.49613C85.854 9.34703 85.063 9.24541 83.938 9.56067C83.4337 9.70217 82.9238 9.825 82.4211 9.91744C81.6731 10.0549 80.956 10.1233 80.3426 10.0828C79.8742 10.0519 79.3401 10.077 78.7852 10.103C78.0505 10.1374 77.28 10.173 76.5764 10.0792C75.9966 10.002 75.5163 9.77755 75.0917 9.5777C74.9589 9.51539 74.8326 9.4559 74.7088 9.4038C74.249 9.41837 73.7901 9.43459 73.3326 9.4549C73.2586 9.49559 73.1816 9.54104 73.1021 9.58756C72.6994 9.82118 72.2002 10.1095 71.6006 10.2715C71.5045 10.2973 71.4081 10.32 71.3184 10.3392C70.4204 10.5143 69.6055 10.4186 68.7627 10.3096C68.0346 10.2157 67.2861 10.1107 66.4553 10.1752C65.8888 10.2193 65.2577 10.3416 64.6441 10.4745C64.3628 10.5353 64.0843 10.5983 63.8149 10.6556C63.0561 10.7919 62.4231 10.8551 61.9572 10.8044C61.7047 10.7763 61.4923 10.6256 61.2838 10.4763C61.2828 10.4754 61.2817 10.4746 61.2808 10.4736C61.2667 10.4635 61.2524 10.4537 61.2382 10.4436C60.5839 10.5135 59.9635 10.594 59.3547 10.6955C58.1202 10.8479 57.2614 10.9078 56.3397 11.0182C56.2058 11.0623 56.0715 11.1062 55.9389 11.15C55.2934 11.3633 54.6902 11.5852 54.313 11.8801C54.265 11.9178 54.2079 11.9547 54.1426 11.9908C53.4138 12.2819 52.2424 12.4416 51.3013 12.6411C50.9452 12.7156 50.6029 12.797 50.2834 12.8899C49.6563 13.0038 49.2471 13.0812 48.8671 13.1745C48.433 13.2811 48.0476 13.1241 47.6575 12.9634C47.2956 12.8133 46.9277 12.6601 46.5381 12.7137C46.3427 12.7407 46.1341 12.8169 45.9138 12.8997C45.7199 12.9726 45.5169 13.0509 45.3042 13.1041C45.2709 13.1124 45.2304 13.1175 45.1832 13.1198C44.9137 13.133 44.4626 13.0774 43.923 13.0037C43.5216 12.9491 43.0711 12.8847 42.6065 12.8339C41.3852 12.9771 40.2109 13.1089 39.0867 13.2578C38.8575 13.4151 38.6644 13.6148 38.5185 13.8665C38.4139 14.0471 38.3289 14.261 38.2433 14.4796C38.1476 14.7238 38.0507 14.9747 37.9256 15.1958C37.8887 15.245 37.8499 15.2926 37.8091 15.3384C37.6309 15.5375 37.4141 15.6255 37.2638 15.5566C37.2569 15.5535 37.2503 15.5501 37.2437 15.5463C37.1834 15.5119 37.1334 15.4538 37.0884 15.4007C37.0313 15.3333 36.9806 15.2731 36.9226 15.2779C36.8809 15.2815 36.84 15.3337 36.7894 15.3966C36.7089 15.4972 36.6039 15.6267 36.4395 15.6382C35.8267 15.6812 35.1769 15.6596 34.5965 15.6382C33.965 15.6147 33.4049 15.595 32.9686 15.6512C32.951 15.6532 32.9336 15.6554 32.9164 15.6575C32.0934 15.7549 31.2076 15.5833 30.3552 15.4208C29.7609 15.3065 29.1616 15.1957 28.6521 15.1569C28.149 15.1192 27.6363 15.2304 27.1364 15.3361C26.6964 15.4294 26.2679 15.518 25.8642 15.5024C25.7213 15.4964 25.572 15.4778 25.4362 15.4397C25.3302 15.4109 25.187 15.2262 25.0057 14.9973C24.874 14.8354 24.7321 14.6498 24.5644 14.4814C23.9183 14.4989 23.2636 14.5072 22.6145 14.5065C22.594 14.5314 22.5727 14.5565 22.5515 14.5823C22.5512 14.5828 22.5509 14.5835 22.5506 14.5841C22.0702 15.17 21.4135 15.9317 20.3419 15.4715C20.0701 15.3557 19.8846 15.1457 19.7181 14.9583C19.5541 14.7742 19.4078 14.6111 19.2141 14.5782C18.9939 14.541 18.7504 14.6548 18.4847 14.775C18.1116 14.9447 17.695 15.1245 17.24 14.9498C17.209 14.9379 17.1757 14.9251 17.141 14.9121C16.8115 14.7891 16.324 14.6072 15.8195 14.26C14.9871 14.2088 14.1524 14.1535 13.3277 14.0991C12.7746 14.0628 12.2212 14.0279 11.6692 13.9956C9.53656 13.866 7.44384 13.8084 5.17781 13.7831C4.99805 13.7791 4.82139 13.775 4.64504 13.7706C3.49146 13.7407 2.35213 13.49 1.49473 13.1606C0.627826 12.8247 0.148269 12.4487 0.0187412 11.9903C-0.0951443 11.5149 0.311394 10.9185 1.02166 10.2661C1.73716 9.61631 2.73468 8.94673 3.80913 8.47917C3.97344 8.40787 4.13808 8.33614 4.30558 8.26404C5.81332 7.58364 7.46402 6.8372 9.10975 6.16693C9.20444 6.11739 9.29867 6.06806 9.39284 6.02037C10.0962 5.66577 10.7321 5.20491 11.374 4.73225C11.521 4.62393 11.6685 4.51501 11.817 4.40731C11.9103 4.33907 12.013 4.27254 12.1239 4.20786C13.3205 3.49187 15.3286 3.07559 16.4742 2.89106C16.4972 2.88696 16.5202 2.88304 16.5431 2.87896C16.8397 2.82904 17.1187 2.76463 17.445 2.69027C18.2241 2.51786 19.2741 2.26442 21.5014 2.15781C22.1371 2.01237 22.7791 1.87708 23.4179 1.75533C23.8248 1.67778 24.2351 1.60374 24.645 1.53392C26.9639 1.12186 29.8101 0.875575 31.7464 0.783191Z" fill="#9747FF"/>
</svg>
