<svg xmlns="http://www.w3.org/2000/svg" viewBox="0 0 1580 2820"><defs><style>.cls-1{fill:#5d658a;}.cls-2{fill:#eb5c54;}.cls-3{fill:#dfa841;}.cls-4{fill:#e9d6c5;}.cls-5{fill:#3aab9f;}.cls-6{fill:#7b9dcb;}.cls-7{fill:#95acc7;}.cls-8{fill:#b0c949;}.cls-9{fill:#80c4d9;}</style></defs><g id="Layer_2" data-name="Layer 2"><g id="Layer_1-2" data-name="Layer 1"><rect class="cls-1" width="1580" height="2820"/><path class="cls-2" d="M1580,1901.66V2820H0V1712.06c17.15,19.76,35.25,38.27,56.09,53.81,46.83,35,111,52.59,164.74,29.67,60.8-25.92,90.87-93.18,115.41-154.56l116.92-292.47c30.8-77,62.22-155.17,112.83-220.91S689.82,1009,772.47,1001.8s172.3,41.27,195.07,121c15,52.44.56,108.44-16.68,160.17A1469,1469,0,0,1,859,1499.26c-16.46,31.47-34.36,63.2-39.71,98.33s4.88,75.2,34.51,94.78c69.82,46.14,172.06-51.79,241.92-5.73,43.2,28.47,40.27,96.28,10.58,138.64s-77.23,67.79-118.49,99a471,471,0,0,0-163.7,232C801.78,2227,799.45,2312,848.83,2367.22c42.92,48,115.07,60.68,178.25,48.18,141.71-28,237.71-156.4,320.48-274.79C1411.46,2049.23,1484.52,1952.38,1580,1901.66Z"/><path d="M1455.18,2000.86c-20.08,21.73-39,44.87-57.06,68.41s-35.08,47.47-51.38,70.77c-90.28,129.11-182.67,247.25-319.85,274.37a237.67,237.67,0,0,1-45.8,4.45c-46.41,0-97-13.69-131.51-52.31C789,2298.77,812.24,2197.16,825,2156.61A470.29,470.29,0,0,1,988.4,1925.08c10.58-8,21.78-15.77,32.61-23.28,31.42-21.79,63.92-44.32,86.09-76,18.32-26.13,26.17-60.84,20.5-90.59-4.1-21.54-14.94-38.64-31.35-49.45-35.31-23.29-79.27-10-121.79,2.76-42.08,12.68-85.6,25.78-120.13,3-32.43-21.44-38.62-63.93-34.07-93.8,4.88-32,20.44-61.6,35.48-90.17,1.38-2.62,2.76-5.23,4.12-7.85a1473.06,1473.06,0,0,0,91.95-216.38c17.51-52.52,31.65-108.36,16.69-160.77-10.81-37.88-37.63-71.16-75.53-93.72-36.42-21.69-79.24-31.65-120.58-28-39.46,3.43-78.39,17.26-115.71,41.1-33.43,21.36-65.06,50.78-91.49,85.09-51.07,66.35-82.54,145-113,221.15q-46.5,116.34-93,232.67l-23.91,59.8c-25.61,64.06-55.57,128.73-114.87,154-58.27,24.85-122.8,1-163.75-29.55C34.66,1748.63,15.9,1729,0,1710.55v3c15.65,18,34,37,55.49,53.07,24.42,18.23,52.14,30.93,80.17,36.72,30.55,6.31,60.13,3.92,85.56-6.93,60-25.58,90.18-90.65,116-155.11l23.91-59.8q46.5-116.34,93-232.67c30.38-76,61.79-154.54,112.7-220.67,56.4-73.24,131.41-119,205.78-125.42,87.38-7.61,172.59,45.25,194,120.33,14.8,51.89.74,107.37-16.67,159.59a1471.7,1471.7,0,0,1-91.82,216.09c-1.36,2.61-2.74,5.22-4.12,7.84-15.12,28.72-30.75,58.42-35.68,90.8a117.45,117.45,0,0,0,4.17,53.68c6,18.22,16.68,32.78,30.77,42.09,35.31,23.33,79.28,10.08,121.81-2.73,42.07-12.67,85.58-25.77,120.11-3,15.95,10.51,26.49,27.16,30.49,48.16,5.57,29.24-2.16,63.37-20.18,89.07-22,31.34-54.31,53.77-85.59,75.46-10.85,7.52-22.06,15.29-32.68,23.33A472.22,472.22,0,0,0,823.14,2156c-12.15,38.46-17.18,77-14.56,111.61,3.08,40.64,16.37,74.37,39.5,100.26,47,52.6,123.38,59.54,179.2,48.5,64-12.65,123.77-46.59,182.83-103.77,52.56-50.88,97.12-112.58,138.27-171.43,62.2-88.95,136.24-187.46,231.62-238.39v-2.27C1537.79,1922.85,1496.86,1955.77,1455.18,2000.86Z"/><path class="cls-3" d="M1580,2609.53V2820H0V1960.15c23.23,31,51.28,60.29,84.41,83.38,61.44,42.8,142.17,61.89,213.22,38.26,58.47-19.45,105.15-65.43,137.48-117.88s52-111.54,71.37-170l168.18-507.54c8.19-24.73,17-50.48,35.73-68.58s50.58-25.51,70.87-9.18c25.35,20.41,17.72,60.17,7.74,91.14l-95,294.61c-10.69,33.17-21.52,67.45-18.41,102.16s23.82,70.31,57.34,79.87c26,7.43,53.45-1.81,80.29-5.23s59.53,2.49,70.57,27.19c9.18,20.55-1,44.2-11.61,64-62.49,117-145.6,224.23-188.07,349.91S650.58,2494.43,751,2581.14c77,66.53,188.84,76.12,289.49,61s197.27-51.51,298.12-65.28C1418.67,2565.88,1505.8,2571.8,1580,2609.53Z"/><path d="M1338.46,2575.82c-52.08,7.11-103.86,20.45-153.93,33.34-47,12.1-95.53,24.61-144.21,31.94-69.45,10.47-199.29,16.49-288.69-60.72-102-88.13-106.93-248.22-66.53-367.78,28-83,74.65-159.25,119.73-233,23.15-37.88,47.09-77.06,68.28-116.75,10.95-20.49,20.88-44.23,11.64-64.93-11.51-25.77-45.77-31.06-71.61-27.77-6.95.89-14,2.18-20.91,3.43-19.61,3.58-39.9,7.28-59,1.83-34.92-10-53.83-47.93-56.61-79-3.14-35.05,8.28-70.49,18.36-101.77L790,1300c14.76-45.81,12.12-76-8.06-92.23-21.12-17-53.92-8.44-72.19,9.24-19.33,18.68-28.18,45.41-36,69L505.53,1793.56c-19.09,57.62-38.84,117.2-71.27,169.82-36,58.33-84.59,100-136.94,117.46-66.79,22.21-146.17,8-212.34-38.13-30.82-21.47-59.36-49.76-85-84.22v3.33c25.34,33.67,53.48,61.38,83.84,82.53a274.57,274.57,0,0,0,103.38,44.2c38.45,7.51,76.74,5.49,110.73-5.81,27.9-9.28,54.44-25,78.89-46.77,22.08-19.65,42-43.72,59.12-71.54,32.56-52.82,52.34-112.51,71.47-170.24L675.6,1286.65c7.74-23.36,16.52-49.83,35.49-68.18,17.66-17.08,49.28-25.43,69.54-9.11,19.47,15.67,21.89,45.13,7.41,90.06L693.1,1594c-10.14,31.45-21.63,67.1-18.45,102.56a107.42,107.42,0,0,0,17.43,49.84c10.58,15.65,24.63,26.34,40.62,30.9,19.54,5.58,40,1.84,59.89-1.78,6.84-1.25,13.91-2.54,20.81-3.42,25.15-3.2,58.46,1.84,69.52,26.61,8.9,19.91-.86,43.11-11.57,63.17-21.17,39.64-45.09,78.79-68.23,116.65C758,2052.4,711.32,2128.76,683.21,2212c-22.13,65.5-29.31,136.35-20.21,199.51,10.24,71,40.43,129.93,87.33,170.44,36,31.13,81.92,51.77,136.36,61.34,46.83,8.23,98.61,8.18,153.93-.16,48.78-7.35,97.4-19.87,144.41-32,50-12.88,101.74-26.21,153.7-33.3,64.48-8.79,157.65-9.89,241.27,32.85v-2.25C1496.15,2565.89,1403,2567,1338.46,2575.82Z"/><path class="cls-4" d="M707.18,1988.08c-4.62,20.28-15.92,38.33-27.68,55.49-38.39,56-83.58,107.11-121.7,163.3S488.25,2326,482.28,2393.66s17.28,140.58,71.44,181.54c20.83,15.75,46.06,27,61,48.44,17.14,24.58,16.87,57.4,10.71,86.73s-17.49,57.64-20.38,87.47a122.33,122.33,0,0,0-.14,22.16H0V2330.21c37.62,20.07,80.5,32.06,123.09,29.65,72.63-4.12,138.35-46.68,188.27-99.58s87.06-116.26,128.41-176.1,88.89-117.95,152.31-153.56c32.11-18,77-27.86,102.3-1.07C708.66,1944.68,711.79,1967.8,707.18,1988.08Z"/><path d="M695.11,1928.86c-26.05-27.61-72-16.78-103.51.89C524.93,1967.18,477,2028.53,439,2083.61c-10.32,14.94-20.55,30.35-30.44,45.25-29.73,44.79-60.47,91.1-97.88,130.74-57,60.38-123.6,95.63-187.59,99.26-3.75.21-7.45.32-11.13.32-44.7,0-83.95-15.1-111.91-30.09v2.26c30.45,16.19,73.91,32.31,123.15,29.51,34.39-2,69.07-12.59,103.08-31.62,30.14-16.87,59-39.84,85.86-68.27,37.52-39.77,68.31-86.15,98.08-131,9.89-14.89,20.11-30.3,30.43-45.22,37.94-54.89,85.66-116,152-153.26,30.85-17.31,75.83-28,101.09-1.25,12.75,13.51,17.55,35.59,12.54,57.62-4.71,20.69-16.68,39.31-27.53,55.14-18.81,27.45-39.61,54.17-59.73,80-20.91,26.87-42.53,54.64-62,83.3-45.76,67.45-70.52,128.7-75.69,187.26a233.23,233.23,0,0,0,13.23,101.21c12.5,33.59,32.77,61.67,58.61,81.22,6.35,4.8,13.21,9.26,19.85,13.56,15.06,9.78,30.64,19.89,40.93,34.65,18.17,26.05,15.77,61.12,10.55,85.95-2.34,11.15-5.48,22.34-8.52,33.17-5,17.63-10.08,35.86-11.88,54.42a125.37,125.37,0,0,0-.15,22.25h2a121.39,121.39,0,0,1,.12-22.06c1.78-18.38,6.88-36.52,11.81-54.07,3-10.86,6.21-22.08,8.56-33.3,7.59-36.16,3.83-66.42-10.87-87.51-10.51-15.07-26.26-25.29-41.48-35.17-6.61-4.29-13.44-8.72-19.74-13.49-50.3-38.05-77.53-107.27-71.05-180.66,5.14-58.21,29.79-119.15,75.36-186.31,19.4-28.6,41-56.35,61.89-83.19,20.14-25.86,41-52.61,59.8-80.11,11-16,23-34.79,27.83-55.83C713.31,1965.63,708.31,1942.86,695.11,1928.86Z"/><path class="cls-5" d="M467.36,2820H0V2533.19c48.57,3.43,103.59-10.55,148.57-35.34,62.14-34.24,112.73-86,172-125.06,14.78-9.74,31.71-19,49.2-16.36,24.18,3.69,39.66,29.8,40.14,54.25s-10.17,47.56-20.17,69.87-19.8,46-17.46,70.37c3.32,34.69,29.89,61.75,49.76,90.37C457.83,2692.87,473.76,2757.63,467.36,2820Z"/><path d="M422.84,2640.72c-4.25-6.12-8.89-12.27-13.37-18.22-16.54-22-33.64-44.67-36.23-71.68-2.27-23.67,6.93-46.55,17.38-69.86l.71-1.59c9.85-21.93,20-44.62,19.55-68.71s-15.94-51.39-41-55.21c-17.78-2.72-35.21,6.82-49.9,16.5-25.13,16.56-49.07,35.7-72.22,54.2-31.43,25.14-63.94,51.12-99.69,70.82C101.5,2522.65,46.93,2535.52,0,2532.18v2c47.28,3.32,102.19-9.63,149.06-35.45,35.9-19.79,68.47-45.83,100-71,23.11-18.48,47-37.59,72.07-54.1,15.1-9.95,31.42-18.8,48.5-16.2,24,3.66,38.82,30,39.28,53.28.47,23.65-9.62,46.12-19.37,67.85l-.71,1.59c-10.57,23.56-19.86,46.71-17.55,70.87,2.64,27.57,19.92,50.51,36.62,72.69,4.47,5.94,9.09,12.07,13.32,18.16,35.47,51.07,51.66,115.37,45.16,178.14h2C474.85,2756.83,458.54,2692.13,422.84,2640.72Z"/><path class="cls-6" d="M356.58,2820H0v-64.92c35-2.33,70.46-15.81,99.82-34.08,50.27-31.29,93.08-75.25,148-97.49,15.42-6.25,32.31-10.71,48.64-7.49s31.71,15.85,33.59,32.38c2.57,22.74-19.15,40.48-26.28,62.22-7.83,24,3.07,50.24,18.34,70.29C332.6,2794.74,345.23,2806.88,356.58,2820Z"/><path d="M344.24,2804.9c-7.27-7.85-14.8-16-21.37-24.6-18.18-23.86-24.81-49.14-18.19-69.36,2.7-8.24,7.62-16,12.37-23.59,7.66-12.15,15.58-24.71,14-39.06-2-17.81-18.84-30.21-34.4-33.25-14-2.77-29.68-.37-49.21,7.55-34.56,14-64.83,37-94.11,59.15-17.36,13.17-35.31,26.78-54,38.41-32,19.9-66.85,31.77-99.29,33.93v2c32.81-2.15,68.06-14.12,100.35-34.23,18.76-11.67,36.75-25.31,54.15-38.5,29.17-22.12,59.34-45,93.65-58.9,19.15-7.76,34.43-10.13,48.07-7.44,14.85,2.91,30.88,14.67,32.8,31.52,1.54,13.65-5.84,25.36-13.66,37.77-2.41,3.82-4.86,7.71-7.06,11.7a73.51,73.51,0,0,0-5.52,12.32c-6.83,20.86-.08,46.82,18.5,71.2,6.63,8.71,14.19,16.86,21.5,24.75,4.15,4.48,8.38,9,12.47,13.74h2.64C353.44,2814.82,348.79,2809.81,344.24,2804.9Z"/><path class="cls-7" d="M1580,2173.77V2400a153.6,153.6,0,0,0-57.39-6.49c-32.49,2.61-69.19,14.37-94.89-5.69-16.31-12.72-22.3-35.55-19.13-56s14.12-38.87,26.6-55.37C1471.44,2228.49,1522.88,2192.35,1580,2173.77Z"/><path d="M1503.25,2210.41a294.62,294.62,0,0,0-68.86,65.43c-9.8,13-23.24,32.87-26.79,55.83-3.5,22.61,4.15,45,19.5,56.94,20.37,15.9,47.48,12.14,73.7,8.52,7.25-1,14.75-2.05,21.89-2.62a152.66,152.66,0,0,1,57.31,6.55V2399a156.31,156.31,0,0,0-45.7-6.92q-5.91,0-11.77.47c-7.2.57-14.72,1.62-22,2.62-25.8,3.58-52.48,7.27-72.19-8.1-14.79-11.54-22.15-33.15-18.75-55.06,2.64-17.14,11-34.6,26.4-54.93,36-47.55,86.78-83.56,144-102.23v-2.1A299.85,299.85,0,0,0,1503.25,2210.41Z"/><path class="cls-6" d="M1580,2801v19H912.93c32.58-26.66,71.39-46.38,111.67-59.06,68-21.4,140.35-24.55,211.6-22.86C1353.27,2740.86,1472.05,2757,1580,2801Z"/><path d="M1236.22,2737.08c-60.25-1.42-138.79-.12-211.92,22.9-42.81,13.48-81.51,34.09-112.95,60h3.17c30.89-25.05,68.67-45,110.38-58.11,72.85-22.93,151.18-24.24,211.28-22.81,135.41,3.22,248,23.84,343.82,63v-2.16C1484.15,2760.87,1371.54,2740.29,1236.22,2737.08Z"/><path class="cls-7" d="M238.46,1558.31c-2.36,23.17-16.72,44-35.46,57.87s-41.54,21.25-64.48,25.28C92.14,1649.6,43.62,1644,0,1627V1410.09c14.83,9.69,31.74,16.92,48.55,21.86,40.11,11.79,82.89,14.73,121.22,31.43S242.7,1516.72,238.46,1558.31Z"/><path d="M220.86,1500.89c-12.57-16-30.57-29.66-50.69-38.42-23.47-10.23-49-15.4-73.66-20.39-15.77-3.2-32.07-6.5-47.68-11.08-18.26-5.37-34.92-12.93-48.83-22.12v2.38a184.81,184.81,0,0,0,48.26,21.65c15.7,4.62,32.05,7.93,47.85,11.13,24.58,5,50,10.12,73.26,20.26,35.82,15.61,72.4,51.65,68.09,93.91-2.19,21.51-15,42.35-35.05,57.17-16.58,12.23-37.54,20.44-64.06,25.09-45.39,8-94.12,2.77-138.35-14.6V1628a265.59,265.59,0,0,0,95.94,18.1,247.32,247.32,0,0,0,42.75-3.68c26.84-4.71,48.07-13,64.9-25.46,20.54-15.15,33.61-36.5,35.86-58.57C241.45,1538.82,235,1518.93,220.86,1500.89Z"/><path class="cls-5" d="M1580,0V1665.13c-88.26,53.47-155.35,145.85-213.15,236.5-72.21,113.25-143.06,235.13-258.4,303.95-24,14.29-57,25.09-77.55,6.2-20.12-18.54-12.78-51.83-.48-76.27,36.91-73.38,102.38-127.63,153.06-192.27s87.35-152.92,54.06-228c-9.33-21.06-24.16-42.14-20.17-64.83,5.78-32.85,48.3-50.69,51.2-83.92,3.36-38.48-47.76-57.76-85.91-51.7s-77.84,24-113.63,9.5c-41-16.68-55.4-70.94-42.43-113.3s45.6-75.33,77.1-106.47l162.48-160.67c16.31-16.12,33-32.8,42.06-53.85s8.79-47.83-6.78-64.66c-34.65-37.41-108,.87-143.85-35.43-18.11-18.36-17.46-48.21-10.34-73s19.51-48.45,21-74.2c3.93-65.89-64.34-114.85-129.39-126-110.41-19-222.8,31.46-308.66,103.42S578.71,984.48,505.47,1069.25,346.79,1234.14,240.16,1268.5C161.61,1293.8,69.44,1288,0,1247V0Z"/><path d="M1465.19,1764.18c-39.91,46.06-74,97.36-99.18,136.91q-8.7,13.64-17.38,27.4c-66.28,104.74-134.82,213.06-240.7,276.23-15.18,9.06-53,27.82-76.35,6.32-24.12-22.22-6.31-63.08-.27-75.08,24.11-47.92,61.11-88.42,96.9-127.58,18.94-20.73,38.53-42.17,56.06-64.53,27.87-35.55,48.17-73.73,58.69-110.43,12.53-43.68,11-83.59-4.5-118.61-2-4.63-4.4-9.33-6.68-13.87-8.1-16.21-16.49-33-13.42-50.38,2.75-15.63,14.23-28.09,25.34-40.14,12-13,24.34-26.4,25.87-43.87,1.1-12.67-3.6-24.29-13.59-33.6-13.65-12.72-36.4-20.31-58.81-20.31a93.91,93.91,0,0,0-14.66,1.13c-10.26,1.63-20.78,4.16-31,6.6-27.65,6.63-56.24,13.49-82.15,3-41.84-17-54.3-71.41-41.85-112.08,13.2-43.12,47-76.55,76.84-106l162.49-160.67c15.47-15.29,33-32.63,42.27-54.17,8.52-19.77,9.66-47.76-7-65.73-17.75-19.17-45.75-18.81-72.83-18.45-26.33.35-53.56.71-71-17-21.52-21.82-14.23-57.64-10.1-72,2.33-8.1,5.28-16.23,8.12-24.09,5.87-16.17,11.92-32.89,13-50.33,2.33-39-20-67.39-39.16-84.34-24.13-21.36-57.32-36.94-91.06-42.74-52.22-9-107.42-3-164,17.65-49.67,18.15-100,47.89-145.42,86C667.1,871.69,614.43,936,563.49,998.13c-19.09,23.28-38.82,47.36-58.78,70.46-63.35,73.31-150.7,162.17-264.86,199C157.66,1294,66.91,1285.59,0,1245.82v2.31c32,18.77,69.89,30.78,110.49,34.92a321.06,321.06,0,0,0,130-13.6c49.64-16,97.23-42.46,145.48-80.89,38.82-30.93,77-68.63,120.27-118.66,20-23.12,39.72-47.21,58.81-70.51,50.89-62.08,103.5-126.29,165.88-178.56,98.24-82.33,210.44-119.94,307.84-103.2,33.38,5.74,66.21,21.15,90.07,42.27,18.82,16.66,40.77,44.53,38.5,82.72-1,17.15-7,33.73-12.85,49.77-2.86,7.89-5.81,16.05-8.16,24.21-4.23,14.73-11.67,51.41,10.59,74,18.07,18.32,45.74,17.95,72.48,17.6s54.19-.71,71.34,17.81c16,17.31,14.86,44.4,6.61,63.58-9.12,21.18-26.51,38.37-41.85,53.54L1103,1303.78c-30,29.66-64,63.28-77.35,106.89a111.36,111.36,0,0,0,1,66.89c7.74,22.84,22.67,39.75,42,47.63,26.5,10.76,55.41,3.83,83.36-2.88,10.14-2.43,20.62-5,30.8-6.56,26-4.14,55.57,3.54,71.8,18.66,9.52,8.88,14,19.93,13,32-1.47,16.78-13.07,29.37-25.35,42.69-11.3,12.26-23,24.93-25.84,41.14-3.18,18,5.35,35.12,13.61,51.62,2.26,4.53,4.6,9.21,6.63,13.79,28,63.29,7.89,148.15-53.94,227-17.47,22.29-37,43.7-56,64.41-35.88,39.26-73,79.87-97.21,128-6.19,12.32-24.44,54.28.7,77.45,8.31,7.66,18.31,10.46,28.5,10.46,19.64,0,40-10.41,50.24-16.53,106.29-63.42,175-171.94,241.36-276.88q8.7-13.75,17.37-27.39c55.24-86.63,123.4-181.71,212.31-235.87V1664C1540.63,1687.7,1503,1720.58,1465.19,1764.18Z"/><path class="cls-6" d="M1580,0V1491.37c-34,33.94-67.3,67.77-100.55,101.6-30.46,31-75.73,64.28-112.77,41.57-32.6-20-30.3-68.72-15.4-103.94s38.74-69.35,36.13-107.5c-4-59-68.61-97.33-82-155-10.64-45.68,13.4-92.21,42-129.38s63.26-71.3,79.41-115.33S1432.64,920.48,1390,901c-14.33-6.56-30.63-8-44.85-14.78-26.12-12.52-40.93-41.63-44.72-70.35s1.55-57.75,5.56-86.44c13.2-94.49,6.75-203.54-64.82-266.63-42.59-37.55-101.36-51.65-158.09-53.55a447.5,447.5,0,0,0-230.3,55.4c-86.23,47.73-154,122.54-215.64,199.48s-119.23,158-192.24,224.18S280.12,1005.8,181.6,1008.6C115.86,1010.47,47.82,986.48,0,942.74V0Z"/><path d="M1478.74,1592.27c-18.69,19-36.74,32.71-53.63,40.72-22.11,10.47-41.59,10.7-57.91.7-18.44-11.31-23.79-31-25-45.5-1.52-17.69,2.15-38.54,10-57.2,3.71-8.77,8-17.64,12.26-26.21,12.74-26,25.91-52.85,23.94-81.75-2.19-32-22.31-58.37-41.76-83.87-16.78-22-34.13-44.76-40.3-71.25-8.8-37.8,5.27-81.05,41.83-128.55,6.94-9,14.36-18,21.54-26.72,22.48-27.23,45.72-55.38,58-88.88,16.11-43.9,6.42-103.69-37.32-123.72-7.07-3.24-14.7-5.25-22.07-7.2-7.66-2-15.57-4.12-22.76-7.57-23.39-11.21-39.9-37.22-44.16-69.58-3.31-25.05.42-50.72,4-75.55q.78-5.31,1.53-10.62c11.92-85.33,10.29-201-65.15-267.52-37.4-33-92.28-51.57-158.72-53.79q-7.45-.25-14.89-.25a446.05,446.05,0,0,0-215.92,55.76c-88.43,48.95-156,124.93-215.94,199.74-12.93,16.15-25.9,32.76-38.45,48.82-47.22,60.46-96.06,123-153.68,175.24-58.47,53-151.51,116.92-262.65,120.08C115,1009.51,46.71,984.34,0,941.37v2.72a250.58,250.58,0,0,0,77,47.1,269,269,0,0,0,104.61,18.41c111.75-3.18,205.21-67.33,263.94-120.59,57.74-52.38,106.63-115,153.91-175.5,12.54-16,25.51-32.66,38.43-48.8,59.77-74.65,127.22-150.45,215.35-199.24A444,444,0,0,1,1083,410.2c66,2.21,120.42,20.64,157.47,53.3,74.77,65.92,76.34,180.9,64.49,265.74q-.75,5.29-1.52,10.61c-3.63,25-7.38,50.78-4,76.1,4.36,33,21.28,59.62,45.28,71.12,7.37,3.53,15.37,5.65,23.11,7.7,7.3,1.93,14.84,3.92,21.76,7.09,42.7,19.55,52.08,78.14,36.28,121.21-12.18,33.18-35.31,61.2-57.68,88.3-7.19,8.71-14.63,17.72-21.59,26.77-36.94,48-51.13,91.82-42.19,130.22,6.27,26.91,23.75,49.84,40.66,72,20.16,26.43,39.2,51.4,41.35,82.79,1.94,28.37-11.11,55-23.74,80.74-4.21,8.6-8.57,17.49-12.31,26.31-15.45,36.51-17.1,85,15.8,105.18a51,51,0,0,0,27.16,7.64c10.15,0,21.06-2.74,32.64-8.23,17.11-8.11,35.35-22,54.2-41.13,32.38-32.93,65.74-66.88,99.84-100.89V1490C1545.41,1524.44,1511.56,1558.87,1478.74,1592.27Z"/><path class="cls-3" d="M1580,1035.36v326.39c-17.47,10-37.2,14.53-55.22,6.84-33.36-14.23-38.47-59.15-34.58-95.22a507.84,507.84,0,0,1,79.8-222.93C1573.25,1045.48,1576.61,1040.45,1580,1035.36Z"/><path d="M1576.91,1038.19q-3.95,5.91-7.75,11.7a509,509,0,0,0-80,223.37c-2.52,23.36-4.13,79.48,35.19,96.25a49.55,49.55,0,0,0,19.61,4c13.46,0,26.14-5,36-10.6v-2.3c-14.22,8.2-34.8,15.64-54.82,7.1-38.09-16.25-36.46-71.28-34-94.19a507.2,507.2,0,0,1,79.64-222.5q3.8-5.77,7.74-11.68c.48-.71,1-1.43,1.43-2.15v-3.6Z"/><path class="cls-3" d="M1580,0V859.44c-49.34-34.2-125.53-48.32-148-104.87C1411.26,702.26,1449,647,1463.66,592.7c22.92-84.69-17.76-182.4-94-225.8C1340,350,1306.55,341,1276,325.88s-59.74-38.81-68.48-71.77c-13.24-49.9,24.13-98.54,63-132.45A623.57,623.57,0,0,1,1485.35,0Z"/><path d="M1526.45,829.34C1487.85,811,1447.94,792,1433,754.2c-14.74-37.13.62-76.65,15.47-114.87,5.91-15.21,12-30.94,16.2-46.37,11.15-41.17,7.65-87-9.85-129s-47.56-76.8-84.63-97.89c-16.76-9.54-35-16.68-52.64-23.59-6.82-2.67-13.76-5.39-20.66-8.27s-13.76-5.9-20.41-9.19c-25.78-12.77-58.49-35.47-68-71.14-14.39-54.24,33.13-105.63,62.74-131.44A623.24,623.24,0,0,1,1488.55,0h-6.4A624.75,624.75,0,0,0,1269.9,120.91c-22.79,19.86-40.05,40.22-51.3,60.5-14.1,25.42-18.16,50-12.06,73,9.66,36.4,42.85,59.47,69,72.42,13.39,6.63,27.55,12.17,41.23,17.53,17.58,6.88,35.75,14,52.38,23.46,76.25,43.4,116.46,140,93.54,224.67-4.15,15.33-10.24,31-16.13,46.16-15,38.58-30.5,78.48-15.47,116.34,15.28,38.49,55.55,57.67,94.5,76.21,18.82,9,38.19,18.19,54.41,29.52v-2.43C1563.89,847.17,1544.91,838.14,1526.45,829.34Z"/><path class="cls-8" d="M1118.92,0c-115.81,58.8-213.73,155.14-295,258.41C715.68,395.93,628.77,549.88,513.3,681.4,468,733,416.06,782.37,350.78,803.46s-146.53,6.16-185-50.65c-32.15-47.46-27.7-110.17-17.93-166.66C183.9,377.74,276.36,179.36,412.77,17.72c5-6,10.16-11.9,15.44-17.72Z"/><path d="M1116.72,0c-50.22,25.74-99.94,60-148.14,102.21-49,42.86-97.93,95.2-145.45,155.58C777,316.38,734.08,379,692.56,439.48c-55.93,81.51-113.75,165.79-180,241.25-42.07,47.92-94.22,99.86-162.08,121.78a191.84,191.84,0,0,1-58.42,9c-48,0-97.32-17.73-125.45-59.27-32.81-48.44-26.73-114.12-17.76-165.93A1197.92,1197.92,0,0,1,413.53,18.37c5.81-6.88,11.08-12.92,16-18.37h-2.7c-4.62,5.12-9.51,10.74-14.86,17.08A1205.71,1205.71,0,0,0,146.87,586c-3.81,22-8.65,55-6.77,86.95,1.89,32.23,10,58.55,24.85,80.44,28.54,42.15,78.5,60.14,127.13,60.14a193.59,193.59,0,0,0,59-9.1c68.32-22.07,120.73-74.23,163-122.35C580.39,606.5,638.25,522.17,694.2,440.61c41.51-60.49,84.43-123,130.5-181.59C919.57,138.49,1019.18,51.47,1121.15,0Z"/><path class="cls-9" d="M285.35,0C222.52,114.08,146,239,100,339.75c-14.07,30.82-32.88,60-57.65,83.15A128.77,128.77,0,0,1,0,449.48V0Z"/><path d="M284.2,0c-19.43,35.26-40.35,71.91-60.67,107.49C178,187.25,130.88,269.73,99.11,339.34,83.67,373.16,64.35,401,41.69,422.17A128.55,128.55,0,0,1,0,448.41v2.13a130.27,130.27,0,0,0,43.05-26.91c22.86-21.32,42.33-49.4,57.88-83.46,31.73-69.53,78.81-152,124.34-231.69C245.77,72.58,266.9,35.57,286.48,0Z"/><path class="cls-9" d="M1580,164.14V417.93q-33.42-35.9-66.84-71.78c-13.64-14.66-27.55-29.71-35.42-48.13-16.54-38.69-1-87.2,32.61-112.49C1530.22,170.59,1555.1,163.64,1580,164.14Z"/><path d="M1509.75,184.73c-16.65,12.52-29.24,30.89-35.48,51.74-6.35,21.25-5.45,43.25,2.55,62s22,33.84,35.61,48.41L1580,419.39v-2.93l-66.1-71c-13.45-14.43-27.35-29.36-35.24-47.83-16.05-37.54-2.17-85.39,32.29-111.3,18.46-13.88,41.65-21.24,66.34-21.24l2.71,0v-2C1553.86,162.56,1529.23,170.08,1509.75,184.73Z"/><path class="cls-4" d="M618,148.67C492,191.85,389.82,299.13,352.86,427.1c-8.63,29.88-12.38,66.17,9.46,88.31,13.45,13.63,34.05,18.31,53.09,16.3s36.94-9.94,54.07-18.51c98.24-49.14,184.64-125.05,236.82-221.71,11.77-21.81,21.92-45.1,24-69.79s-5-51.14-23.16-67.95S659.24,134.53,618,148.67Z"/><path d="M407,533.16c-18,0-34.56-6.12-45.34-17-18-18.21-21.32-49.08-9.71-89.28,18.18-62.95,52.55-122.23,99.4-171.43S555.68,169,617.66,147.72c40.86-14,71.19-12.21,90.16,5.3,17,15.69,25.79,41.4,23.48,68.76C729,248.57,717.23,273.36,707.18,292c-25.37,47-59.46,90.38-101.34,128.94a589.92,589.92,0,0,1-135.91,93.2c-16.92,8.46-35.21,16.57-54.41,18.6A80.2,80.2,0,0,1,407,533.16ZM618,148.67l.33,1C492.16,192.84,390.82,299.27,353.82,427.38c-7.95,27.52-12.8,65,9.21,87.32,12,12.22,31.59,18.2,52.28,16,18.88-2,37-10,53.72-18.4C572.33,460.63,656.28,382,705.42,291c10-18.43,21.66-43,23.89-69.4,2.26-26.75-6.28-51.84-22.84-67.12-18.4-17-48.06-18.62-88.16-4.87Z"/><path class="cls-9" d="M975.75,0c-41.45,35.36-86,67.05-138.33,80.17-28.39,7.12-61.84,7.14-83-13C739.52,53,733.73,30.86,736.73,10.56A80.44,80.44,0,0,1,739,0Z"/><path d="M974.23,0c-40.49,34.44-85.12,66.17-137.05,79.2-20.3,5.09-58,10.2-82.1-12.8-13.84-13.18-20.49-34.52-17.36-55.7A79.57,79.57,0,0,1,740.08,0H738a80.14,80.14,0,0,0-2.26,10.41c-3.22,21.81,3.66,43.82,18,57.44s33.12,17.69,50.46,17.69a140.4,140.4,0,0,0,33.5-4.4C890.74,67.82,936.14,35.19,977.29,0Z"/><circle class="cls-4" cx="581.21" cy="646.45" r="88.78"/><path d="M581.21,736.23A89.78,89.78,0,1,1,671,646.45,89.88,89.88,0,0,1,581.21,736.23Zm0-177.56A87.78,87.78,0,1,0,669,646.45,87.88,87.88,0,0,0,581.21,558.67Z"/><circle class="cls-2" cx="287.88" cy="2270.15" r="57.55"/><path d="M287.88,2328.7a58.56,58.56,0,1,1,58.55-58.55A58.62,58.62,0,0,1,287.88,2328.7Zm0-115.11a56.56,56.56,0,1,0,56.55,56.56A56.62,56.62,0,0,0,287.88,2213.59Z"/><circle class="cls-4" cx="1040.47" cy="1467.56" r="57.55"/><path d="M1040.47,1526.11a58.56,58.56,0,1,1,58.55-58.55A58.61,58.61,0,0,1,1040.47,1526.11Zm0-115.11a56.56,56.56,0,1,0,56.55,56.56A56.62,56.62,0,0,0,1040.47,1411Z"/><circle class="cls-4" cx="230.32" cy="1257.08" r="57.55"/><path d="M230.32,1315.64a58.56,58.56,0,1,1,58.56-58.56A58.62,58.62,0,0,1,230.32,1315.64Zm0-115.11a56.56,56.56,0,1,0,56.56,56.55A56.62,56.62,0,0,0,230.32,1200.53Z"/><circle class="cls-4" cx="1107.44" cy="755.02" r="57.55"/><path d="M1107.44,813.58A58.56,58.56,0,1,1,1166,755,58.63,58.63,0,0,1,1107.44,813.58Zm0-115.11A56.56,56.56,0,1,0,1164,755,56.62,56.62,0,0,0,1107.44,698.47Z"/><circle class="cls-4" cx="874.8" cy="2389.89" r="57.55"/><path d="M874.8,2448.44a58.56,58.56,0,1,1,58.55-58.55A58.62,58.62,0,0,1,874.8,2448.44Zm0-115.11a56.56,56.56,0,1,0,56.55,56.56A56.63,56.63,0,0,0,874.8,2333.33Z"/><circle class="cls-4" cx="1262.34" cy="139.44" r="57.55"/><path d="M1262.34,198a58.56,58.56,0,1,1,58.56-58.55A58.62,58.62,0,0,1,1262.34,198Zm0-115.11a56.56,56.56,0,1,0,56.56,56.56A56.62,56.62,0,0,0,1262.34,82.88Z"/><circle class="cls-4" cx="1249.7" cy="2593.9" r="57.55"/><path d="M1249.7,2652.46a58.56,58.56,0,1,1,58.55-58.56A58.63,58.63,0,0,1,1249.7,2652.46Zm0-115.11a56.56,56.56,0,1,0,56.55,56.55A56.62,56.62,0,0,0,1249.7,2537.35Z"/></g></g></svg>